<svg xmlns="http://www.w3.org/2000/svg" xmlns:xlink="http://www.w3.org/1999/xlink" width="1020" height="639.285" viewBox="0 0 1020 639.285"><defs><clipPath id="a"><path d="M14.682,0h990.636C1013.427,0,1020,10.726,1020,23.957v591.37c0,13.231-6.573,23.957-14.682,23.957H14.682C6.573,639.285,0,628.559,0,615.328V23.957C0,10.726,6.573,0,14.682,0Z" transform="translate(-14498.084 -13329.984)" fill="#cbc232"/></clipPath><clipPath id="b"><path d="M385.125,0c212.7,0,385.125,153.674,385.125,343.24S597.824,686.48,385.125,686.48,0,532.806,0,343.24,172.427,0,385.125,0Z" transform="translate(0 0)" fill="#21c9b8"/></clipPath><clipPath id="c"><rect width="562.639" height="523.57" fill="#dee4f0"/></clipPath><clipPath id="d"><rect width="174.606" height="165.808" fill="#fff" stroke="#fff" stroke-width="1"/></clipPath><filter id="e" x="26.578" y="368.154" width="279" height="203.278" filterUnits="userSpaceOnUse"><feOffset dy="3" input="SourceAlpha"/><feGaussianBlur stdDeviation="3" result="f"/><feFlood flood-opacity="0.161"/><feComposite operator="in" in2="f"/><feComposite in="SourceGraphic"/></filter><filter id="g" x="357.917" y="421.369" width="323.32" height="203.278" filterUnits="userSpaceOnUse"><feOffset dy="3" input="SourceAlpha"/><feGaussianBlur stdDeviation="3" result="h"/><feFlood flood-opacity="0.161"/><feComposite operator="in" in2="h"/><feComposite in="SourceGraphic"/></filter><filter id="i" x="727.592" y="92.895" width="282.32" height="191.278" filterUnits="userSpaceOnUse"><feOffset dy="3" input="SourceAlpha"/><feGaussianBlur stdDeviation="3" result="j"/><feFlood flood-opacity="0.161"/><feComposite operator="in" in2="j"/><feComposite in="SourceGraphic"/></filter><filter id="k" x="736.748" y="377.146" width="271.837" height="128.278" filterUnits="userSpaceOnUse"><feOffset dy="3" input="SourceAlpha"/><feGaussianBlur stdDeviation="3" result="l"/><feFlood flood-opacity="0.161"/><feComposite operator="in" in2="l"/><feComposite in="SourceGraphic"/></filter><filter id="m" x="48.736" y="101.008" width="246" height="172" filterUnits="userSpaceOnUse"><feOffset dy="3" input="SourceAlpha"/><feGaussianBlur stdDeviation="3" result="n"/><feFlood flood-opacity="0.161"/><feComposite operator="in" in2="n"/><feComposite in="SourceGraphic"/></filter></defs><g transform="translate(6976.578 8417.285)"><g transform="translate(7521.506 4912.699)" opacity="0.43" clip-path="url(#a)"><path d="M0,0H1958.007V706.392H0Z" transform="translate(-14597.666 -13371.824)" fill="#f3f9ff"/><path d="M360.082,0C558.95,0,720.165,150.02,720.165,335.079S558.95,670.157,360.082,670.157,0,520.138,0,335.079,161.214,0,360.082,0Z" transform="translate(-13212.232 -13356.229)" fill="#dbe3fb" opacity="0.14"/><path d="M360.082,0C558.95,0,720.165,150.02,720.165,335.079S558.95,670.157,360.082,670.157,0,520.138,0,335.079,161.214,0,360.082,0Z" transform="translate(-14051.47 -12965.129)" fill="#dbe3fb" opacity="0.14"/><path d="M360.082,0C558.95,0,720.165,150.02,720.165,335.079S558.95,670.157,360.082,670.157,0,520.138,0,335.079,161.214,0,360.082,0Z" transform="translate(-13226.376 -13509.097)" fill="#dbe3fb" opacity="0"/><rect width="9.879" height="2.452" transform="translate(-13072.669 -12945.945)" fill="#dbe3fb"/><ellipse cx="359.603" cy="320.493" rx="359.603" ry="320.493" transform="translate(-14113.548 -13970.972)" fill="#94a6dd" opacity="0.13"/><path d="M368.357,0C571.8,0,736.715,146.983,736.715,328.3s-164.919,328.3-368.357,328.3S0,509.608,0,328.3,164.919,0,368.357,0Z" transform="translate(-13635.472 -13220.078)" fill="#fff" opacity="0.25"/><path d="M480.474,0C745.832,0,960.947,200.178,960.947,447.11s-215.116,447.11-480.474,447.11S0,694.042,0,447.11,215.115,0,480.474,0Z" transform="translate(-14850.658 -12896.752)" fill="#a5b9f6" opacity="0.23" style="mix-blend-mode:multiply;isolation:isolate"/><path d="M480.474,0C745.832,0,960.947,200.178,960.947,447.11s-215.116,447.11-480.474,447.11S0,694.042,0,447.11,215.115,0,480.474,0Z" transform="translate(-15286.294 -13956.207)" fill="#a5b9f6" opacity="0.23" style="mix-blend-mode:multiply;isolation:isolate"/><path d="M480.474,0C745.832,0,960.947,200.178,960.947,447.11s-215.116,447.11-480.474,447.11S0,694.042,0,447.11,215.115,0,480.474,0Z" transform="translate(-14458.665 -13872.385)" fill="#f6f8fe" opacity="0.51" style="mix-blend-mode:lighten;isolation:isolate"/><g transform="translate(-14540.83 -13743.45)"><g clip-path="url(#c)"><path d="M562.639,261.781a245.583,245.583,0,0,0-1.316-25.043H430.7L553.15,194.283a249.349,249.349,0,0,0-18.783-46.949L387.777,198.148,498.366,95.23a274.106,274.106,0,0,0-38.073-35.421L367.91,145.787l54.3-110.557a290.283,290.283,0,0,0-48.958-20.855L308.244,146.73V1.217C299.377.439,290.4,0,281.315,0s-18.054.439-26.92,1.217V122.788L208.781,8.839A291.4,291.4,0,0,0,158.32,26.317l54.605,136.4L102.336,59.809A275.117,275.117,0,0,0,64.263,95.23l92.393,85.978-118.8-50.532a252.507,252.507,0,0,0-22.411,45.558l142.232,60.5H1.307a240.666,240.666,0,0,0,0,50.1H131.951L9.489,329.287a248.315,248.315,0,0,0,18.783,46.965l146.58-50.822L64.263,428.332a274.165,274.165,0,0,0,38.073,35.429l92.393-85.978-54.3,110.548a290.526,290.526,0,0,0,48.949,20.863L254.395,376.84V522.354c8.867.778,17.84,1.216,26.92,1.216s18.062-.439,26.929-1.216V400.782L353.858,514.74a293.481,293.481,0,0,0,50.461-17.47L349.7,360.859l110.589,102.9a273.161,273.161,0,0,0,38.073-35.429l-92.393-85.978,118.8,50.549a253.352,253.352,0,0,0,22.42-45.558l-142.232-60.5H561.323a245.658,245.658,0,0,0,1.316-25.059" fill="#dee4f0" opacity="0.12"/></g></g><path d="M655.464,304.97A286.094,286.094,0,0,0,653.93,275.8H501.754l142.655-49.459a290.49,290.49,0,0,0-21.882-54.694l-170.774,59.2,128.834-119.9a319.332,319.332,0,0,0-44.354-41.264L428.608,169.839l63.262-128.8a338.176,338.176,0,0,0-57.035-24.3L359.1,170.938V1.417C348.769.511,338.315,0,327.727,0s-21.032.511-31.362,1.417V143.046L243.226,10.3A339.473,339.473,0,0,0,184.44,30.659l63.614,158.906L119.22,69.677a320.5,320.5,0,0,0-44.354,41.264L182.5,211.1l-138.4-58.869A294.166,294.166,0,0,0,18,205.309l165.7,70.487H1.523a280.372,280.372,0,0,0,0,58.368h152.2L11.055,383.613a289.283,289.283,0,0,0,21.882,54.714L203.7,379.12,74.866,499a319.4,319.4,0,0,0,44.354,41.274L226.856,440.11,163.594,568.9A338.451,338.451,0,0,0,220.619,593.2l75.746-154.191V608.532c10.329.906,20.783,1.417,31.362,1.417s21.042-.511,31.372-1.417V466.9l53.14,132.759a341.9,341.9,0,0,0,58.786-20.353L407.4,420.394,536.234,540.273A318.235,318.235,0,0,0,580.588,499L472.951,398.836l138.4,58.888a295.152,295.152,0,0,0,26.119-53.075l-165.7-70.487H653.93a286.18,286.18,0,0,0,1.533-29.193" transform="translate(-14325.346 -12944.718)" fill="none" stroke="#fff" stroke-width="1"/><rect width="9.879" height="2.452" transform="translate(-13031.422 -12881.615)" fill="#e9dcbf"/><g transform="translate(-13536.814 -13199.576)" style="isolation:isolate"><g transform="translate(0 0)" clip-path="url(#d)" style="isolation:isolate"><path d="M20.577,0h0A3.353,3.353,0,0,0,17.21,2.79C16.158,9.681,10.37,14.875,2.978,15.966A3.315,3.315,0,0,0,0,19.133,3.318,3.318,0,0,0,3,22.3c7.426,1.053,13.226,6.282,14.232,13.172a3.427,3.427,0,0,0,6.732.056A16.368,16.368,0,0,1,38.245,22.225a3.139,3.139,0,0,0,2.9-3v-.075a3.25,3.25,0,0,0-2.976-3.113c-7.248-.963-13.156-6.378-14.232-13.274A3.34,3.34,0,0,0,20.577,0" transform="translate(0 0)" fill="#fff" stroke="#fff" stroke-width="1"/><path d="M42.12,0h0a3.353,3.353,0,0,0-3.368,2.79C37.7,9.681,31.913,14.875,24.521,15.966a3.315,3.315,0,0,0-2.978,3.167,3.318,3.318,0,0,0,3,3.171c7.426,1.053,13.226,6.282,14.232,13.172a3.427,3.427,0,0,0,6.732.056A16.368,16.368,0,0,1,59.788,22.225a3.139,3.139,0,0,0,2.9-3v-.075a3.25,3.25,0,0,0-2.976-3.113c-7.248-.963-13.156-6.378-14.23-13.274A3.344,3.344,0,0,0,42.12,0" transform="translate(22.943 0)" fill="#fff" stroke="#fff" stroke-width="1"/><path d="M63.663,0h0A3.353,3.353,0,0,0,60.3,2.79c-1.051,6.891-6.839,12.085-14.232,13.176a3.315,3.315,0,0,0-2.978,3.167,3.318,3.318,0,0,0,3,3.171c7.426,1.053,13.226,6.282,14.232,13.172a3.427,3.427,0,0,0,6.732.056A16.368,16.368,0,0,1,81.331,22.225a3.139,3.139,0,0,0,2.9-3v-.075a3.25,3.25,0,0,0-2.976-3.113C74.009,15.073,68.1,9.658,67.025,2.761A3.34,3.34,0,0,0,63.663,0" transform="translate(45.886 0)" fill="#fff" stroke="#fff" stroke-width="1"/><path d="M85.208,0h0A3.353,3.353,0,0,0,81.84,2.79C80.788,9.681,75,14.875,67.608,15.966a3.315,3.315,0,0,0-2.978,3.167,3.318,3.318,0,0,0,3,3.171c7.426,1.053,13.226,6.282,14.232,13.172a3.427,3.427,0,0,0,6.732.056,16.368,16.368,0,0,1,14.281-13.307,3.139,3.139,0,0,0,2.9-3v-.075a3.25,3.25,0,0,0-2.976-3.113c-7.248-.963-13.156-6.378-14.232-13.274A3.34,3.34,0,0,0,85.208,0" transform="translate(68.829 0)" fill="#fff" stroke="#fff" stroke-width="1"/><path d="M20.577,22.12h0a3.354,3.354,0,0,0-3.368,2.792C16.158,31.8,10.37,37,2.978,38.088A3.174,3.174,0,0,0,3,44.426c7.426,1.053,13.226,6.282,14.232,13.172a3.426,3.426,0,0,0,6.732.054A16.368,16.368,0,0,1,38.245,44.347a3.14,3.14,0,0,0,2.9-3v-.077a3.252,3.252,0,0,0-2.976-3.113c-7.248-.961-13.156-6.378-14.232-13.274a3.34,3.34,0,0,0-3.362-2.761" transform="translate(0 20.385)" fill="#fff" stroke="#fff" stroke-width="1"/><path d="M42.12,22.12h0a3.354,3.354,0,0,0-3.368,2.792C37.7,31.8,31.913,37,24.521,38.088a3.174,3.174,0,0,0,.023,6.337C31.969,45.479,37.77,50.707,38.775,57.6a3.426,3.426,0,0,0,6.732.054A16.368,16.368,0,0,1,59.788,44.347a3.14,3.14,0,0,0,2.9-3v-.077a3.252,3.252,0,0,0-2.976-3.113c-7.248-.961-13.156-6.378-14.23-13.274A3.344,3.344,0,0,0,42.12,22.12" transform="translate(22.943 20.385)" fill="#fff" stroke="#fff" stroke-width="1"/><path d="M63.663,22.12h0A3.354,3.354,0,0,0,60.3,24.912C59.244,31.8,53.456,37,46.064,38.088a3.174,3.174,0,0,0,.023,6.337c7.426,1.053,13.226,6.282,14.232,13.172a3.426,3.426,0,0,0,6.732.054A16.368,16.368,0,0,1,81.331,44.347a3.14,3.14,0,0,0,2.9-3v-.077a3.252,3.252,0,0,0-2.976-3.113c-7.248-.961-13.156-6.378-14.232-13.274a3.34,3.34,0,0,0-3.362-2.761" transform="translate(45.886 20.385)" fill="#fff" stroke="#fff" stroke-width="1"/><path d="M85.208,22.12h0a3.354,3.354,0,0,0-3.368,2.792C80.788,31.8,75,37,67.608,38.088a3.174,3.174,0,0,0,.023,6.337c7.426,1.053,13.226,6.282,14.232,13.172a3.426,3.426,0,0,0,6.732.054,16.368,16.368,0,0,1,14.281-13.305,3.14,3.14,0,0,0,2.9-3v-.077a3.252,3.252,0,0,0-2.976-3.113c-7.248-.961-13.156-6.378-14.232-13.274a3.34,3.34,0,0,0-3.362-2.761" transform="translate(68.829 20.385)" fill="#fff" stroke="#fff" stroke-width="1"/><path d="M20.577,44.241h0a3.353,3.353,0,0,0-3.368,2.79C16.158,53.922,10.37,59.116,2.978,60.206A3.175,3.175,0,0,0,3,66.545c7.426,1.053,13.226,6.282,14.232,13.172a3.427,3.427,0,0,0,6.732.056A16.368,16.368,0,0,1,38.245,66.466a3.14,3.14,0,0,0,2.9-3V63.39a3.25,3.25,0,0,0-2.976-3.113C30.923,59.314,25.015,53.9,23.939,47a3.34,3.34,0,0,0-3.362-2.761" transform="translate(0 40.772)" fill="#fff" stroke="#fff" stroke-width="1"/><path d="M42.12,44.241h0a3.353,3.353,0,0,0-3.368,2.79C37.7,53.922,31.913,59.116,24.521,60.206a3.175,3.175,0,0,0,.023,6.339C31.969,67.6,37.77,72.827,38.775,79.717a3.427,3.427,0,0,0,6.732.056A16.368,16.368,0,0,1,59.788,66.466a3.14,3.14,0,0,0,2.9-3V63.39a3.25,3.25,0,0,0-2.976-3.113C52.466,59.314,46.558,53.9,45.484,47a3.344,3.344,0,0,0-3.364-2.761" transform="translate(22.943 40.772)" fill="#fff" stroke="#fff" stroke-width="1"/><path d="M63.663,44.241h0a3.353,3.353,0,0,0-3.368,2.79c-1.051,6.891-6.839,12.085-14.232,13.174a3.175,3.175,0,0,0,.023,6.339c7.426,1.053,13.226,6.282,14.232,13.172a3.427,3.427,0,0,0,6.732.056A16.368,16.368,0,0,1,81.331,66.466a3.14,3.14,0,0,0,2.9-3V63.39a3.25,3.25,0,0,0-2.976-3.113C74.009,59.314,68.1,53.9,67.025,47a3.34,3.34,0,0,0-3.362-2.761" transform="translate(45.886 40.772)" fill="#fff" stroke="#fff" stroke-width="1"/><path d="M85.208,44.241h0a3.353,3.353,0,0,0-3.368,2.79C80.788,53.922,75,59.116,67.608,60.206a3.175,3.175,0,0,0,.023,6.339c7.426,1.053,13.226,6.282,14.232,13.172a3.427,3.427,0,0,0,6.732.056,16.368,16.368,0,0,1,14.281-13.307,3.14,3.14,0,0,0,2.9-3V63.39a3.25,3.25,0,0,0-2.976-3.113C95.553,59.314,89.645,53.9,88.569,47a3.34,3.34,0,0,0-3.362-2.761" transform="translate(68.829 40.772)" fill="#fff" stroke="#fff" stroke-width="1"/><path d="M20.577,66.361h0a3.353,3.353,0,0,0-3.368,2.79C16.158,76.042,10.37,81.236,2.978,82.327A3.174,3.174,0,0,0,3,88.665c7.426,1.053,13.226,6.282,14.232,13.172a3.427,3.427,0,0,0,6.732.056A16.368,16.368,0,0,1,38.245,88.586a3.139,3.139,0,0,0,2.9-3V85.51A3.25,3.25,0,0,0,38.171,82.4c-7.248-.963-13.156-6.378-14.232-13.274a3.34,3.34,0,0,0-3.362-2.761" transform="translate(0 61.157)" fill="#fff" stroke="#fff" stroke-width="1"/><path d="M42.12,66.361h0a3.353,3.353,0,0,0-3.368,2.79C37.7,76.042,31.913,81.236,24.521,82.327a3.174,3.174,0,0,0,.023,6.337c7.426,1.053,13.226,6.282,14.232,13.172a3.427,3.427,0,0,0,6.732.056A16.368,16.368,0,0,1,59.788,88.586a3.139,3.139,0,0,0,2.9-3V85.51A3.25,3.25,0,0,0,59.714,82.4c-7.248-.963-13.156-6.378-14.23-13.274a3.344,3.344,0,0,0-3.364-2.761" transform="translate(22.943 61.157)" fill="#fff" stroke="#fff" stroke-width="1"/><path d="M63.663,66.361h0a3.353,3.353,0,0,0-3.368,2.79c-1.051,6.891-6.839,12.085-14.232,13.176a3.174,3.174,0,0,0,.023,6.337c7.426,1.053,13.226,6.282,14.232,13.172a3.427,3.427,0,0,0,6.732.056A16.368,16.368,0,0,1,81.331,88.586a3.139,3.139,0,0,0,2.9-3V85.51A3.25,3.25,0,0,0,81.257,82.4c-7.248-.963-13.156-6.378-14.232-13.274a3.34,3.34,0,0,0-3.362-2.761" transform="translate(45.886 61.157)" fill="#fff" stroke="#fff" stroke-width="1"/><path d="M85.208,66.361h0a3.353,3.353,0,0,0-3.368,2.79C80.788,76.042,75,81.236,67.608,82.327a3.174,3.174,0,0,0,.023,6.337c7.426,1.053,13.226,6.282,14.232,13.172a3.427,3.427,0,0,0,6.732.056,16.368,16.368,0,0,1,14.281-13.307,3.139,3.139,0,0,0,2.9-3V85.51A3.25,3.25,0,0,0,102.8,82.4c-7.248-.963-13.156-6.378-14.232-13.274a3.34,3.34,0,0,0-3.362-2.761" transform="translate(68.829 61.157)" fill="#fff" stroke="#fff" stroke-width="1"/></g></g></g><g transform="translate(-7121 -12052.131)"><g transform="matrix(1, 0, 0, 1, 144.42, 3634.85)" filter="url(#e)"><rect width="261" height="185.278" rx="20" transform="translate(35.58 374.15)" fill="#fff"/></g><text transform="translate(201.16 4034)" fill="#12263f" font-size="16" font-family="Roboto-Regular, Roboto"><tspan x="0" y="17">Al tener varios procesos sobre </tspan><tspan x="0" y="41">un mismo aplicativo permite </tspan><tspan x="0" y="65">que varias plataformas estén </tspan><tspan x="0" y="89">técnicamente integradas en </tspan><tspan x="0" y="113">una sola, lo que genera mayor </tspan><tspan x="0" y="137">agilidad en los procesos.</tspan></text></g><g transform="translate(-6789.66 -11998.916)"><g transform="matrix(1, 0, 0, 1, -186.92, 3581.63)" filter="url(#g)"><rect width="305.32" height="185.278" rx="20" transform="translate(366.92 427.37)" fill="#fff"/></g><text transform="translate(201.16 4034)" fill="#12263f" font-size="16" font-family="Roboto-Regular, Roboto"><tspan x="0" y="17">Los ERP usualmente se pueden </tspan><tspan x="0" y="41">adquirir a través de módulos, lo que </tspan><tspan x="0" y="65">permite para la compañía flexibilidad </tspan><tspan x="0" y="89">en términos de impacto en costos y </tspan><tspan x="0" y="113">en términos de apropiación para los </tspan><tspan x="0" y="137">colaboradores.</tspan></text></g><g transform="translate(-6419.985 -12327.391)"><g transform="matrix(1, 0, 0, 1, -556.59, 3910.11)" filter="url(#i)"><rect width="264.32" height="173.278" rx="20" transform="translate(736.59 98.89)" fill="#fff"/></g><text transform="translate(201.16 4028.278)" fill="#12263f" font-size="16" font-family="Roboto-Regular, Roboto"><tspan x="0" y="17">Los ERP son herramientas muy </tspan><tspan x="0" y="41">útiles en el momento de </tspan><tspan x="0" y="65">requerirse informes, lo que </tspan><tspan x="0" y="89">permite tener un panorama </tspan><tspan x="0" y="113">completo con información de </tspan><tspan x="0" y="137">calidad.</tspan></text></g><g transform="translate(-6410.83 -12043.139)"><g transform="matrix(1, 0, 0, 1, -565.75, 3625.85)" filter="url(#k)"><path d="M16.628,0H237.209c9.183,0,16.628,6.239,16.628,13.935V96.344c0,7.7-7.444,13.935-16.628,13.935H16.628C7.444,110.278,0,104.04,0,96.344V13.935C0,6.239,7.444,0,16.628,0Z" transform="translate(745.75 383.15)" fill="#fff"/></g><path d="M2.828,15.773H8.219V17H1.32V5.625H2.828ZM14.922,17a3.036,3.036,0,0,1-.2-.891,3.225,3.225,0,0,1-2.406,1.047,2.984,2.984,0,0,1-2.051-.707,2.287,2.287,0,0,1-.8-1.793,2.39,2.39,0,0,1,1-2.051,4.733,4.733,0,0,1,2.824-.73H14.7v-.664A1.623,1.623,0,0,0,14.242,10a1.821,1.821,0,0,0-1.336-.449,2.107,2.107,0,0,0-1.3.391,1.151,1.151,0,0,0-.523.945H9.633a2,2,0,0,1,.449-1.223A3.066,3.066,0,0,1,11.3,8.734a4.1,4.1,0,0,1,1.691-.344,3.342,3.342,0,0,1,2.289.73,2.635,2.635,0,0,1,.859,2.012v3.891a4.757,4.757,0,0,0,.3,1.852V17Zm-2.4-1.1a2.54,2.54,0,0,0,1.289-.352,2.127,2.127,0,0,0,.883-.914V12.9H13.563q-2.656,0-2.656,1.555a1.316,1.316,0,0,0,.453,1.063A1.742,1.742,0,0,0,12.523,15.9Zm13.352,1.258a3.693,3.693,0,0,1-2.8-1.129A4.19,4.19,0,0,1,22,13.008v-.266a5.073,5.073,0,0,1,.48-2.246,3.748,3.748,0,0,1,1.344-1.547A3.378,3.378,0,0,1,25.7,8.391a3.166,3.166,0,0,1,2.563,1.086,4.7,4.7,0,0,1,.914,3.109v.6H23.445a3,3,0,0,0,.73,2.02,2.3,2.3,0,0,0,1.777.77,2.517,2.517,0,0,0,1.3-.312,3.259,3.259,0,0,0,.93-.828l.883.688A3.55,3.55,0,0,1,25.875,17.156ZM25.7,9.578a1.928,1.928,0,0,0-1.469.637A3.1,3.1,0,0,0,23.492,12h4.234v-.109a2.753,2.753,0,0,0-.594-1.707A1.815,1.815,0,0,0,25.7,9.578ZM32.2,8.547l.039.938A3.122,3.122,0,0,1,34.75,8.391,2.417,2.417,0,0,1,37.164,9.75a3.2,3.2,0,0,1,1.1-.984,3.242,3.242,0,0,1,1.6-.375q2.781,0,2.828,2.945V17H41.242V11.422a1.941,1.941,0,0,0-.414-1.355,1.823,1.823,0,0,0-1.391-.449,1.916,1.916,0,0,0-1.336.48,1.949,1.949,0,0,0-.617,1.293V17H36.031V11.461a1.613,1.613,0,0,0-1.8-1.844,1.934,1.934,0,0,0-1.945,1.211V17H30.836V8.547Zm19.8,4.32a5.062,5.062,0,0,1-.883,3.109,2.829,2.829,0,0,1-2.391,1.18,3.1,3.1,0,0,1-2.422-.977v4.07H44.867V8.547h1.32l.07.938a2.977,2.977,0,0,1,2.453-1.094,2.882,2.882,0,0,1,2.41,1.148,5.117,5.117,0,0,1,.887,3.2ZM50.563,12.7a3.735,3.735,0,0,0-.609-2.258,1.963,1.963,0,0,0-1.672-.828,2.125,2.125,0,0,0-1.969,1.164V14.82A2.129,2.129,0,0,0,48.3,15.977a1.954,1.954,0,0,0,1.652-.824A4.077,4.077,0,0,0,50.563,12.7ZM57.93,9.844a4.331,4.331,0,0,0-.711-.055A1.9,1.9,0,0,0,55.289,11v6H53.844V8.547H55.25l.023.977a2.251,2.251,0,0,1,2.016-1.133,1.477,1.477,0,0,1,.641.109Zm4.836,7.313a3.693,3.693,0,0,1-2.8-1.129,4.19,4.19,0,0,1-1.078-3.02v-.266a5.073,5.073,0,0,1,.48-2.246,3.748,3.748,0,0,1,1.344-1.547,3.378,3.378,0,0,1,1.871-.559,3.166,3.166,0,0,1,2.563,1.086,4.7,4.7,0,0,1,.914,3.109v.6H60.336a3,3,0,0,0,.73,2.02,2.3,2.3,0,0,0,1.777.77,2.517,2.517,0,0,0,1.3-.312,3.259,3.259,0,0,0,.93-.828l.883.688A3.55,3.55,0,0,1,62.766,17.156Zm-.18-7.578a1.928,1.928,0,0,0-1.469.637A3.1,3.1,0,0,0,60.383,12h4.234v-.109a2.753,2.753,0,0,0-.594-1.707A1.815,1.815,0,0,0,62.586,9.578Zm10.07,5.18a1.064,1.064,0,0,0-.441-.91,4.249,4.249,0,0,0-1.539-.559,7.277,7.277,0,0,1-1.742-.562,2.479,2.479,0,0,1-.953-.781,1.869,1.869,0,0,1-.309-1.078,2.193,2.193,0,0,1,.879-1.758A3.432,3.432,0,0,1,70.8,8.391a3.532,3.532,0,0,1,2.332.742,2.357,2.357,0,0,1,.895,1.9H72.57a1.3,1.3,0,0,0-.5-1.023,1.888,1.888,0,0,0-1.27-.43,1.976,1.976,0,0,0-1.234.344,1.082,1.082,0,0,0-.445.9.877.877,0,0,0,.414.789,5.1,5.1,0,0,0,1.5.508,7.8,7.8,0,0,1,1.754.578,2.558,2.558,0,0,1,1,.809,1.988,1.988,0,0,1,.324,1.152,2.163,2.163,0,0,1-.906,1.816,3.8,3.8,0,0,1-2.352.684,4.257,4.257,0,0,1-1.8-.359,2.922,2.922,0,0,1-1.223-1,2.42,2.42,0,0,1-.441-1.395h1.445a1.5,1.5,0,0,0,.582,1.152,2.258,2.258,0,0,0,1.434.426,2.331,2.331,0,0,0,1.316-.332A1.02,1.02,0,0,0,72.656,14.758ZM81.2,17a3.036,3.036,0,0,1-.2-.891,3.225,3.225,0,0,1-2.406,1.047,2.984,2.984,0,0,1-2.051-.707,2.288,2.288,0,0,1-.8-1.793,2.39,2.39,0,0,1,1-2.051,4.733,4.733,0,0,1,2.824-.73h1.406v-.664A1.623,1.623,0,0,0,80.523,10a1.821,1.821,0,0,0-1.336-.449,2.108,2.108,0,0,0-1.3.391,1.151,1.151,0,0,0-.523.945H75.914a2,2,0,0,1,.449-1.223,3.066,3.066,0,0,1,1.219-.934,4.1,4.1,0,0,1,1.691-.344,3.342,3.342,0,0,1,2.289.73,2.635,2.635,0,0,1,.859,2.012v3.891a4.757,4.757,0,0,0,.3,1.852V17Zm-2.4-1.1a2.54,2.54,0,0,0,1.289-.352,2.127,2.127,0,0,0,.883-.914V12.9H79.844q-2.656,0-2.656,1.555a1.316,1.316,0,0,0,.453,1.063A1.742,1.742,0,0,0,78.8,15.9Zm11.8-9.4V8.547h1.578V9.664H90.609v5.242a1.171,1.171,0,0,0,.211.762.888.888,0,0,0,.719.254,3.5,3.5,0,0,0,.688-.094V17a4.19,4.19,0,0,1-1.109.156,1.8,1.8,0,0,1-1.461-.586,2.517,2.517,0,0,1-.492-1.664V9.664H87.625V8.547h1.539V6.5Zm6.773,10.656a3.693,3.693,0,0,1-2.8-1.129,4.19,4.19,0,0,1-1.078-3.02v-.266a5.073,5.073,0,0,1,.48-2.246,3.748,3.748,0,0,1,1.344-1.547A3.378,3.378,0,0,1,97.2,8.391a3.166,3.166,0,0,1,2.563,1.086,4.7,4.7,0,0,1,.914,3.109v.6H94.953a3,3,0,0,0,.73,2.02,2.3,2.3,0,0,0,1.777.77,2.517,2.517,0,0,0,1.3-.312,3.259,3.259,0,0,0,.93-.828l.883.688A3.55,3.55,0,0,1,97.383,17.156ZM97.2,9.578a1.928,1.928,0,0,0-1.469.637A3.1,3.1,0,0,0,95,12h4.234v-.109a2.753,2.753,0,0,0-.594-1.707A1.815,1.815,0,0,0,97.2,9.578Zm6.516-1.031.047,1.063A3.08,3.08,0,0,1,106.3,8.391q2.68,0,2.7,3.023V17h-1.445V11.406a1.946,1.946,0,0,0-.418-1.352,1.675,1.675,0,0,0-1.277-.437,2.086,2.086,0,0,0-1.234.375,2.546,2.546,0,0,0-.828.984V17h-1.445V8.547Zm7.109,4.156a4.952,4.952,0,0,1,.922-3.129,3.137,3.137,0,0,1,4.766-.168V5h1.445V17h-1.328l-.07-.906a2.943,2.943,0,0,1-2.414,1.063,2.887,2.887,0,0,1-2.395-1.2,5.008,5.008,0,0,1-.926-3.141Zm1.445.164a3.749,3.749,0,0,0,.594,2.25,1.92,1.92,0,0,0,1.641.813,2.108,2.108,0,0,0,2.008-1.234V10.813a2.125,2.125,0,0,0-1.992-1.2,1.929,1.929,0,0,0-1.656.82A4.128,4.128,0,0,0,112.273,12.867Zm12.016-3.023a4.331,4.331,0,0,0-.711-.055A1.9,1.9,0,0,0,121.648,11v6H120.2V8.547h1.406l.023.977a2.251,2.251,0,0,1,2.016-1.133,1.477,1.477,0,0,1,.641.109ZM130.836,17a3.036,3.036,0,0,1-.2-.891,3.225,3.225,0,0,1-2.406,1.047,2.984,2.984,0,0,1-2.051-.707,2.288,2.288,0,0,1-.8-1.793,2.39,2.39,0,0,1,1-2.051,4.733,4.733,0,0,1,2.824-.73h1.406v-.664A1.623,1.623,0,0,0,130.156,10a1.821,1.821,0,0,0-1.336-.449,2.108,2.108,0,0,0-1.3.391,1.151,1.151,0,0,0-.523.945h-1.453A2,2,0,0,1,126,9.668a3.066,3.066,0,0,1,1.219-.934,4.1,4.1,0,0,1,1.691-.344,3.342,3.342,0,0,1,2.289.73,2.635,2.635,0,0,1,.859,2.012v3.891a4.757,4.757,0,0,0,.3,1.852V17Zm-2.4-1.1a2.54,2.54,0,0,0,1.289-.352,2.127,2.127,0,0,0,.883-.914V12.9h-1.133q-2.656,0-2.656,1.555a1.316,1.316,0,0,0,.453,1.063A1.742,1.742,0,0,0,128.438,15.9ZM129.773,5h1.75L129.43,7.3h-1.164Zm13.43,9.758a1.064,1.064,0,0,0-.441-.91,4.249,4.249,0,0,0-1.539-.559,7.277,7.277,0,0,1-1.742-.562,2.479,2.479,0,0,1-.953-.781,1.869,1.869,0,0,1-.309-1.078,2.193,2.193,0,0,1,.879-1.758,3.432,3.432,0,0,1,2.246-.719,3.532,3.532,0,0,1,2.332.742,2.357,2.357,0,0,1,.895,1.9h-1.453a1.3,1.3,0,0,0-.5-1.023,1.888,1.888,0,0,0-1.27-.43,1.976,1.976,0,0,0-1.234.344,1.082,1.082,0,0,0-.445.9.877.877,0,0,0,.414.789,5.1,5.1,0,0,0,1.5.508,7.8,7.8,0,0,1,1.754.578,2.558,2.558,0,0,1,1,.809,1.988,1.988,0,0,1,.324,1.152,2.163,2.163,0,0,1-.906,1.816,3.8,3.8,0,0,1-2.352.684,4.257,4.257,0,0,1-1.8-.359,2.922,2.922,0,0,1-1.223-1,2.42,2.42,0,0,1-.441-1.395h1.445a1.5,1.5,0,0,0,.582,1.152,2.258,2.258,0,0,0,1.434.426,2.331,2.331,0,0,0,1.316-.332A1.02,1.02,0,0,0,143.2,14.758ZM148.1,17h-1.445V8.547H148.1ZM146.539,6.3a.863.863,0,0,1,.215-.594.807.807,0,0,1,.637-.242.819.819,0,0,1,.641.242.854.854,0,0,1,.219.594.826.826,0,0,1-.219.586.834.834,0,0,1-.641.234.821.821,0,0,1-.637-.234A.834.834,0,0,1,146.539,6.3Zm7.383,10.852a3.693,3.693,0,0,1-2.8-1.129,4.19,4.19,0,0,1-1.078-3.02v-.266a5.073,5.073,0,0,1,.48-2.246,3.748,3.748,0,0,1,1.344-1.547,3.378,3.378,0,0,1,1.871-.559A3.166,3.166,0,0,1,156.3,9.477a4.7,4.7,0,0,1,.914,3.109v.6h-5.727a3,3,0,0,0,.73,2.02,2.3,2.3,0,0,0,1.777.77,2.517,2.517,0,0,0,1.3-.312,3.258,3.258,0,0,0,.93-.828l.883.688A3.55,3.55,0,0,1,153.922,17.156Zm-.18-7.578a1.928,1.928,0,0,0-1.469.637A3.1,3.1,0,0,0,151.539,12h4.234v-.109a2.753,2.753,0,0,0-.594-1.707A1.815,1.815,0,0,0,153.742,9.578Zm6.508-1.031.039.938A3.122,3.122,0,0,1,162.8,8.391a2.417,2.417,0,0,1,2.414,1.359,3.2,3.2,0,0,1,1.1-.984,3.242,3.242,0,0,1,1.6-.375q2.781,0,2.828,2.945V17h-1.445V11.422a1.941,1.941,0,0,0-.414-1.355,1.823,1.823,0,0,0-1.391-.449,1.917,1.917,0,0,0-1.336.48,1.949,1.949,0,0,0-.617,1.293V17h-1.453V11.461a1.613,1.613,0,0,0-1.8-1.844,1.934,1.934,0,0,0-1.945,1.211V17h-1.445V8.547Zm19.8,4.32a5.062,5.062,0,0,1-.883,3.109,2.829,2.829,0,0,1-2.391,1.18,3.1,3.1,0,0,1-2.422-.977v4.07h-1.445V8.547h1.32l.07.938a2.977,2.977,0,0,1,2.453-1.094,2.882,2.882,0,0,1,2.41,1.148,5.117,5.117,0,0,1,.887,3.2Zm-1.445-.164A3.735,3.735,0,0,0,178,10.445a1.963,1.963,0,0,0-1.672-.828,2.125,2.125,0,0,0-1.969,1.164V14.82a2.129,2.129,0,0,0,1.984,1.156A1.954,1.954,0,0,0,178,15.152,4.077,4.077,0,0,0,178.609,12.7Zm7.367-2.859a4.331,4.331,0,0,0-.711-.055A1.9,1.9,0,0,0,183.336,11v6h-1.445V8.547H183.3l.023.977a2.251,2.251,0,0,1,2.016-1.133,1.477,1.477,0,0,1,.641.109Zm4.836,7.313a3.693,3.693,0,0,1-2.8-1.129,4.19,4.19,0,0,1-1.078-3.02v-.266a5.073,5.073,0,0,1,.48-2.246,3.748,3.748,0,0,1,1.344-1.547,3.378,3.378,0,0,1,1.871-.559A3.166,3.166,0,0,1,193.2,9.477a4.7,4.7,0,0,1,.914,3.109v.6h-5.727a3,3,0,0,0,.73,2.02,2.3,2.3,0,0,0,1.777.77,2.517,2.517,0,0,0,1.3-.312,3.258,3.258,0,0,0,.93-.828l.883.688A3.55,3.55,0,0,1,190.813,17.156Zm-.18-7.578a1.928,1.928,0,0,0-1.469.637A3.1,3.1,0,0,0,188.43,12h4.234v-.109a2.753,2.753,0,0,0-.594-1.707A1.815,1.815,0,0,0,190.633,9.578ZM204.961,17a3.036,3.036,0,0,1-.2-.891,3.225,3.225,0,0,1-2.406,1.047,2.984,2.984,0,0,1-2.051-.707,2.287,2.287,0,0,1-.8-1.793,2.39,2.39,0,0,1,1-2.051,4.733,4.733,0,0,1,2.824-.73h1.406v-.664A1.623,1.623,0,0,0,204.281,10a1.821,1.821,0,0,0-1.336-.449,2.107,2.107,0,0,0-1.3.391,1.151,1.151,0,0,0-.523.945h-1.453a2,2,0,0,1,.449-1.223,3.066,3.066,0,0,1,1.219-.934,4.1,4.1,0,0,1,1.691-.344,3.342,3.342,0,0,1,2.289.73,2.635,2.635,0,0,1,.859,2.012v3.891a4.757,4.757,0,0,0,.3,1.852V17Zm-2.4-1.1a2.54,2.54,0,0,0,1.289-.352,2.127,2.127,0,0,0,.883-.914V12.9H203.6q-2.656,0-2.656,1.555a1.316,1.316,0,0,0,.453,1.063A1.742,1.742,0,0,0,202.563,15.9ZM6.016,38.758a1.064,1.064,0,0,0-.441-.91,4.249,4.249,0,0,0-1.539-.559,7.277,7.277,0,0,1-1.742-.562,2.479,2.479,0,0,1-.953-.781,1.869,1.869,0,0,1-.309-1.078,2.193,2.193,0,0,1,.879-1.758,3.432,3.432,0,0,1,2.246-.719,3.532,3.532,0,0,1,2.332.742,2.357,2.357,0,0,1,.895,1.9H5.93a1.3,1.3,0,0,0-.5-1.023,1.888,1.888,0,0,0-1.27-.43,1.976,1.976,0,0,0-1.234.344,1.082,1.082,0,0,0-.445.9.877.877,0,0,0,.414.789,5.1,5.1,0,0,0,1.5.508,7.8,7.8,0,0,1,1.754.578,2.558,2.558,0,0,1,1,.809,1.988,1.988,0,0,1,.324,1.152,2.163,2.163,0,0,1-.906,1.816,3.8,3.8,0,0,1-2.352.684,4.257,4.257,0,0,1-1.8-.359,2.922,2.922,0,0,1-1.223-1A2.42,2.42,0,0,1,.742,38.4H2.188a1.5,1.5,0,0,0,.582,1.152,2.258,2.258,0,0,0,1.434.426,2.331,2.331,0,0,0,1.316-.332A1.02,1.02,0,0,0,6.016,38.758Zm8.547,1.406a3.07,3.07,0,0,1-2.477.992,2.628,2.628,0,0,1-2.059-.785,3.4,3.4,0,0,1-.715-2.324v-5.5h1.445v5.461q0,1.922,1.563,1.922a2.163,2.163,0,0,0,2.2-1.234V32.547h1.445V41H14.594ZM21.773,36.7a4.952,4.952,0,0,1,.922-3.129,3.137,3.137,0,0,1,4.766-.168V29h1.445V41H27.578l-.07-.906a2.943,2.943,0,0,1-2.414,1.063,2.887,2.887,0,0,1-2.395-1.2,5.008,5.008,0,0,1-.926-3.141Zm1.445.164a3.749,3.749,0,0,0,.594,2.25,1.92,1.92,0,0,0,1.641.813A2.108,2.108,0,0,0,27.461,38.7V34.813a2.125,2.125,0,0,0-1.992-1.2,1.929,1.929,0,0,0-1.656.82A4.128,4.128,0,0,0,23.219,36.867ZM32.719,41H31.273V32.547h1.445ZM31.156,30.3a.863.863,0,0,1,.215-.594.807.807,0,0,1,.637-.242.819.819,0,0,1,.641.242.854.854,0,0,1,.219.594.826.826,0,0,1-.219.586.834.834,0,0,1-.641.234.821.821,0,0,1-.637-.234A.834.834,0,0,1,31.156,30.3Zm8.8,8.453a1.064,1.064,0,0,0-.441-.91,4.249,4.249,0,0,0-1.539-.559,7.277,7.277,0,0,1-1.742-.562,2.479,2.479,0,0,1-.953-.781,1.869,1.869,0,0,1-.309-1.078,2.193,2.193,0,0,1,.879-1.758,3.432,3.432,0,0,1,2.246-.719,3.532,3.532,0,0,1,2.332.742,2.357,2.357,0,0,1,.895,1.9H39.867a1.3,1.3,0,0,0-.5-1.023,1.888,1.888,0,0,0-1.27-.43,1.976,1.976,0,0,0-1.234.344,1.082,1.082,0,0,0-.445.9.877.877,0,0,0,.414.789,5.1,5.1,0,0,0,1.5.508,7.8,7.8,0,0,1,1.754.578,2.558,2.558,0,0,1,1,.809,1.988,1.988,0,0,1,.324,1.152,2.163,2.163,0,0,1-.906,1.816,3.8,3.8,0,0,1-2.352.684,4.257,4.257,0,0,1-1.8-.359,2.922,2.922,0,0,1-1.223-1A2.42,2.42,0,0,1,34.68,38.4h1.445a1.5,1.5,0,0,0,.582,1.152,2.258,2.258,0,0,0,1.434.426,2.331,2.331,0,0,0,1.316-.332A1.02,1.02,0,0,0,39.953,38.758Zm10.469-1.891a5.062,5.062,0,0,1-.883,3.109,2.829,2.829,0,0,1-2.391,1.18,3.1,3.1,0,0,1-2.422-.977v4.07H43.281v-11.7H44.6l.07.938a2.977,2.977,0,0,1,2.453-1.094,2.882,2.882,0,0,1,2.41,1.148,5.117,5.117,0,0,1,.887,3.2ZM48.977,36.7a3.735,3.735,0,0,0-.609-2.258,1.963,1.963,0,0,0-1.672-.828,2.125,2.125,0,0,0-1.969,1.164V38.82a2.129,2.129,0,0,0,1.984,1.156,1.954,1.954,0,0,0,1.652-.824A4.077,4.077,0,0,0,48.977,36.7Zm2.9-.008a4.993,4.993,0,0,1,.488-2.234,3.643,3.643,0,0,1,1.359-1.531,3.7,3.7,0,0,1,1.988-.539,3.565,3.565,0,0,1,2.793,1.2,4.6,4.6,0,0,1,1.066,3.18v.1a5.036,5.036,0,0,1-.473,2.215,3.589,3.589,0,0,1-1.352,1.527,3.743,3.743,0,0,1-2.02.547,3.556,3.556,0,0,1-2.785-1.2A4.575,4.575,0,0,1,51.875,36.8Zm1.453.172a3.616,3.616,0,0,0,.652,2.258,2.211,2.211,0,0,0,3.5-.012,3.955,3.955,0,0,0,.648-2.418,3.61,3.61,0,0,0-.66-2.254,2.1,2.1,0,0,0-1.754-.863,2.075,2.075,0,0,0-1.727.852A3.925,3.925,0,0,0,53.328,36.867ZM66.3,38.758a1.064,1.064,0,0,0-.441-.91,4.249,4.249,0,0,0-1.539-.559,7.277,7.277,0,0,1-1.742-.562,2.479,2.479,0,0,1-.953-.781,1.869,1.869,0,0,1-.309-1.078,2.193,2.193,0,0,1,.879-1.758,3.432,3.432,0,0,1,2.246-.719,3.532,3.532,0,0,1,2.332.742,2.357,2.357,0,0,1,.895,1.9H66.219a1.3,1.3,0,0,0-.5-1.023,1.888,1.888,0,0,0-1.27-.43,1.976,1.976,0,0,0-1.234.344,1.082,1.082,0,0,0-.445.9.877.877,0,0,0,.414.789,5.1,5.1,0,0,0,1.5.508,7.8,7.8,0,0,1,1.754.578,2.558,2.558,0,0,1,1,.809,1.988,1.988,0,0,1,.324,1.152,2.163,2.163,0,0,1-.906,1.816,3.8,3.8,0,0,1-2.352.684,4.257,4.257,0,0,1-1.8-.359,2.922,2.922,0,0,1-1.223-1,2.42,2.42,0,0,1-.441-1.395h1.445a1.5,1.5,0,0,0,.582,1.152,2.258,2.258,0,0,0,1.434.426,2.331,2.331,0,0,0,1.316-.332A1.02,1.02,0,0,0,66.3,38.758ZM71.2,41H69.758V32.547H71.2ZM69.641,30.3a.863.863,0,0,1,.215-.594.807.807,0,0,1,.637-.242.819.819,0,0,1,.641.242.854.854,0,0,1,.219.594.826.826,0,0,1-.219.586.834.834,0,0,1-.641.234.821.821,0,0,1-.637-.234A.834.834,0,0,1,69.641,30.3Zm7.266,9.672a2.082,2.082,0,0,0,1.352-.469,1.649,1.649,0,0,0,.641-1.172h1.367a2.621,2.621,0,0,1-.5,1.383,3.293,3.293,0,0,1-1.23,1.047,3.55,3.55,0,0,1-1.629.391A3.482,3.482,0,0,1,74.16,40a4.59,4.59,0,0,1-1.02-3.152v-.242a5.089,5.089,0,0,1,.453-2.2,3.451,3.451,0,0,1,1.3-1.492,3.7,3.7,0,0,1,2-.531,3.39,3.39,0,0,1,2.363.852,3.043,3.043,0,0,1,1,2.211H78.9a1.992,1.992,0,0,0-.621-1.348,1.932,1.932,0,0,0-1.379-.527,2.023,2.023,0,0,0-1.707.793,3.724,3.724,0,0,0-.605,2.293v.273a3.65,3.65,0,0,0,.6,2.25A2.033,2.033,0,0,0,76.906,39.977ZM83.461,41H82.016V32.547h1.445ZM81.9,30.3a.863.863,0,0,1,.215-.594.807.807,0,0,1,.637-.242.819.819,0,0,1,.641.242.854.854,0,0,1,.219.594.826.826,0,0,1-.219.586.834.834,0,0,1-.641.234.821.821,0,0,1-.637-.234A.834.834,0,0,1,81.9,30.3ZM85.391,36.7a4.993,4.993,0,0,1,.488-2.234,3.643,3.643,0,0,1,1.359-1.531,3.7,3.7,0,0,1,1.988-.539,3.565,3.565,0,0,1,2.793,1.2,4.6,4.6,0,0,1,1.066,3.18v.1a5.036,5.036,0,0,1-.473,2.215,3.589,3.589,0,0,1-1.352,1.527,3.743,3.743,0,0,1-2.02.547,3.556,3.556,0,0,1-2.785-1.2A4.575,4.575,0,0,1,85.391,36.8Zm1.453.172a3.616,3.616,0,0,0,.652,2.258,2.211,2.211,0,0,0,3.5-.012,3.955,3.955,0,0,0,.648-2.418,3.61,3.61,0,0,0-.66-2.254,2.1,2.1,0,0,0-1.754-.863,2.075,2.075,0,0,0-1.727.852A3.925,3.925,0,0,0,86.844,36.867ZM89.883,29h1.75l-2.094,2.3H88.375Zm6.383,3.547.047,1.063a3.08,3.08,0,0,1,2.531-1.219q2.68,0,2.7,3.023V41H100.1V35.406a1.946,1.946,0,0,0-.418-1.352,1.675,1.675,0,0,0-1.277-.437,2.086,2.086,0,0,0-1.234.375,2.546,2.546,0,0,0-.828.984V41H94.9V32.547ZM109.258,41h-1.445V29h1.445Zm7.531,0a3.036,3.036,0,0,1-.2-.891,3.225,3.225,0,0,1-2.406,1.047,2.984,2.984,0,0,1-2.051-.707,2.288,2.288,0,0,1-.8-1.793,2.39,2.39,0,0,1,1-2.051,4.733,4.733,0,0,1,2.824-.73h1.406v-.664A1.623,1.623,0,0,0,116.109,34a1.821,1.821,0,0,0-1.336-.449,2.107,2.107,0,0,0-1.3.391,1.151,1.151,0,0,0-.523.945H111.5a2,2,0,0,1,.449-1.223,3.066,3.066,0,0,1,1.219-.934,4.1,4.1,0,0,1,1.691-.344,3.342,3.342,0,0,1,2.289.73,2.635,2.635,0,0,1,.859,2.012v3.891a4.757,4.757,0,0,0,.3,1.852V41Zm-2.4-1.1a2.54,2.54,0,0,0,1.289-.352,2.127,2.127,0,0,0,.883-.914V36.9H115.43q-2.656,0-2.656,1.555a1.316,1.316,0,0,0,.453,1.063A1.742,1.742,0,0,0,114.391,39.9ZM125.8,41h-1.445V32.547H125.8Zm-1.562-10.7a.863.863,0,0,1,.215-.594.807.807,0,0,1,.637-.242.819.819,0,0,1,.641.242.854.854,0,0,1,.219.594.826.826,0,0,1-.219.586.834.834,0,0,1-.641.234.821.821,0,0,1-.637-.234A.834.834,0,0,1,124.242,30.3Zm5.242,2.242.047,1.063a3.08,3.08,0,0,1,2.531-1.219q2.68,0,2.7,3.023V41H133.32V35.406a1.946,1.946,0,0,0-.418-1.352,1.675,1.675,0,0,0-1.277-.437,2.086,2.086,0,0,0-1.234.375,2.546,2.546,0,0,0-.828.984V41h-1.445V32.547ZM137.656,41V33.664H136.32V32.547h1.336V31.68a2.878,2.878,0,0,1,.727-2.1,2.745,2.745,0,0,1,2.055-.742,3.793,3.793,0,0,1,.992.133l-.078,1.172a4.151,4.151,0,0,0-.781-.07,1.413,1.413,0,0,0-1.086.41,1.66,1.66,0,0,0-.383,1.176v.891h1.8v1.117h-1.8V41Zm4.461-4.3a4.993,4.993,0,0,1,.488-2.234,3.642,3.642,0,0,1,1.359-1.531,3.7,3.7,0,0,1,1.988-.539,3.565,3.565,0,0,1,2.793,1.2,4.6,4.6,0,0,1,1.066,3.18v.1a5.036,5.036,0,0,1-.473,2.215,3.589,3.589,0,0,1-1.352,1.527,3.743,3.743,0,0,1-2.02.547,3.556,3.556,0,0,1-2.785-1.2,4.575,4.575,0,0,1-1.066-3.164Zm1.453.172a3.616,3.616,0,0,0,.652,2.258,2.211,2.211,0,0,0,3.5-.012,3.954,3.954,0,0,0,.648-2.418,3.61,3.61,0,0,0-.66-2.254,2.1,2.1,0,0,0-1.754-.863,2.075,2.075,0,0,0-1.727.852A3.925,3.925,0,0,0,143.57,36.867Zm12.141-3.023a4.331,4.331,0,0,0-.711-.055A1.9,1.9,0,0,0,153.07,35v6h-1.445V32.547h1.406l.023.977a2.251,2.251,0,0,1,2.016-1.133,1.477,1.477,0,0,1,.641.109Zm2.688-1.3.039.938a3.122,3.122,0,0,1,2.508-1.094,2.417,2.417,0,0,1,2.414,1.359,3.2,3.2,0,0,1,1.1-.984,3.242,3.242,0,0,1,1.6-.375q2.781,0,2.828,2.945V41h-1.445V35.422a1.941,1.941,0,0,0-.414-1.355,1.823,1.823,0,0,0-1.391-.449,1.917,1.917,0,0,0-1.336.48,1.949,1.949,0,0,0-.617,1.293V41h-1.453V35.461a1.613,1.613,0,0,0-1.8-1.844,1.934,1.934,0,0,0-1.945,1.211V41h-1.445V32.547ZM176.281,41a3.036,3.036,0,0,1-.2-.891,3.225,3.225,0,0,1-2.406,1.047,2.984,2.984,0,0,1-2.051-.707,2.287,2.287,0,0,1-.8-1.793,2.39,2.39,0,0,1,1-2.051,4.733,4.733,0,0,1,2.824-.73h1.406v-.664A1.623,1.623,0,0,0,175.6,34a1.821,1.821,0,0,0-1.336-.449,2.107,2.107,0,0,0-1.3.391,1.151,1.151,0,0,0-.523.945h-1.453a2,2,0,0,1,.449-1.223,3.066,3.066,0,0,1,1.219-.934,4.1,4.1,0,0,1,1.691-.344,3.342,3.342,0,0,1,2.289.73,2.635,2.635,0,0,1,.859,2.012v3.891a4.757,4.757,0,0,0,.3,1.852V41Zm-2.4-1.1a2.54,2.54,0,0,0,1.289-.352,2.127,2.127,0,0,0,.883-.914V36.9h-1.133q-2.656,0-2.656,1.555a1.316,1.316,0,0,0,.453,1.063A1.742,1.742,0,0,0,173.883,39.9Zm9.273.078a2.082,2.082,0,0,0,1.352-.469,1.649,1.649,0,0,0,.641-1.172h1.367a2.621,2.621,0,0,1-.5,1.383,3.293,3.293,0,0,1-1.23,1.047,3.55,3.55,0,0,1-1.629.391A3.482,3.482,0,0,1,180.41,40a4.59,4.59,0,0,1-1.02-3.152v-.242a5.089,5.089,0,0,1,.453-2.2,3.451,3.451,0,0,1,1.3-1.492,3.7,3.7,0,0,1,2-.531,3.39,3.39,0,0,1,2.363.852,3.043,3.043,0,0,1,1,2.211h-1.367a1.992,1.992,0,0,0-.621-1.348,1.932,1.932,0,0,0-1.379-.527,2.023,2.023,0,0,0-1.707.793,3.724,3.724,0,0,0-.605,2.293v.273a3.65,3.65,0,0,0,.6,2.25A2.033,2.033,0,0,0,183.156,39.977ZM189.711,41h-1.445V32.547h1.445Zm-1.562-10.7a.863.863,0,0,1,.215-.594.807.807,0,0,1,.637-.242.819.819,0,0,1,.641.242.854.854,0,0,1,.219.594.826.826,0,0,1-.219.586.834.834,0,0,1-.641.234.821.821,0,0,1-.637-.234A.834.834,0,0,1,188.148,30.3Zm3.492,6.391a4.993,4.993,0,0,1,.488-2.234,3.642,3.642,0,0,1,1.359-1.531,3.7,3.7,0,0,1,1.988-.539,3.565,3.565,0,0,1,2.793,1.2,4.6,4.6,0,0,1,1.066,3.18v.1a5.036,5.036,0,0,1-.473,2.215,3.589,3.589,0,0,1-1.352,1.527,3.743,3.743,0,0,1-2.02.547,3.556,3.556,0,0,1-2.785-1.2,4.575,4.575,0,0,1-1.066-3.164Zm1.453.172a3.616,3.616,0,0,0,.652,2.258,2.211,2.211,0,0,0,3.5-.012,3.954,3.954,0,0,0,.648-2.418,3.61,3.61,0,0,0-.66-2.254,2.1,2.1,0,0,0-1.754-.863,2.075,2.075,0,0,0-1.727.852A3.925,3.925,0,0,0,193.094,36.867ZM196.133,29h1.75l-2.094,2.3h-1.164Zm6.383,3.547.047,1.063a3.08,3.08,0,0,1,2.531-1.219q2.68,0,2.7,3.023V41h-1.445V35.406a1.946,1.946,0,0,0-.418-1.352,1.675,1.675,0,0,0-1.277-.437,2.086,2.086,0,0,0-1.234.375,2.546,2.546,0,0,0-.828.984V41h-1.445V32.547ZM6.313,65a3.036,3.036,0,0,1-.2-.891A3.225,3.225,0,0,1,3.7,65.156a2.984,2.984,0,0,1-2.051-.707,2.287,2.287,0,0,1-.8-1.793,2.39,2.39,0,0,1,1-2.051,4.733,4.733,0,0,1,2.824-.73H6.086v-.664A1.623,1.623,0,0,0,5.633,58,1.821,1.821,0,0,0,4.3,57.555a2.107,2.107,0,0,0-1.3.391,1.151,1.151,0,0,0-.523.945H1.023a2,2,0,0,1,.449-1.223,3.066,3.066,0,0,1,1.219-.934,4.1,4.1,0,0,1,1.691-.344,3.342,3.342,0,0,1,2.289.73,2.635,2.635,0,0,1,.859,2.012v3.891a4.757,4.757,0,0,0,.3,1.852V65Zm-2.4-1.1A2.54,2.54,0,0,0,5.2,63.547a2.127,2.127,0,0,0,.883-.914V60.9H4.953Q2.3,60.9,2.3,62.453a1.316,1.316,0,0,0,.453,1.063A1.742,1.742,0,0,0,3.914,63.9Zm9.273.078a2.082,2.082,0,0,0,1.352-.469,1.649,1.649,0,0,0,.641-1.172h1.367a2.621,2.621,0,0,1-.5,1.383,3.293,3.293,0,0,1-1.23,1.047,3.55,3.55,0,0,1-1.629.391A3.482,3.482,0,0,1,10.441,64a4.59,4.59,0,0,1-1.02-3.152v-.242a5.089,5.089,0,0,1,.453-2.2,3.451,3.451,0,0,1,1.3-1.492,3.7,3.7,0,0,1,2-.531,3.39,3.39,0,0,1,2.363.852,3.043,3.043,0,0,1,1,2.211H15.18a1.992,1.992,0,0,0-.621-1.348,1.932,1.932,0,0,0-1.379-.527,2.023,2.023,0,0,0-1.707.793,3.724,3.724,0,0,0-.605,2.293v.273a3.65,3.65,0,0,0,.6,2.25A2.033,2.033,0,0,0,13.188,63.977ZM20.133,54.5v2.047h1.578v1.117H20.133v5.242a1.171,1.171,0,0,0,.211.762.888.888,0,0,0,.719.254,3.5,3.5,0,0,0,.688-.094V65a4.19,4.19,0,0,1-1.109.156,1.8,1.8,0,0,1-1.461-.586,2.517,2.517,0,0,1-.492-1.664V57.664H17.148V56.547h1.539V54.5Zm8.484,9.664a3.07,3.07,0,0,1-2.477.992,2.628,2.628,0,0,1-2.059-.785,3.4,3.4,0,0,1-.715-2.324v-5.5h1.445v5.461q0,1.922,1.563,1.922a2.163,2.163,0,0,0,2.2-1.234V56.547h1.445V65H28.648Zm8.82.836a3.036,3.036,0,0,1-.2-.891,3.225,3.225,0,0,1-2.406,1.047,2.984,2.984,0,0,1-2.051-.707,2.287,2.287,0,0,1-.8-1.793,2.39,2.39,0,0,1,1-2.051,4.733,4.733,0,0,1,2.824-.73h1.406v-.664A1.623,1.623,0,0,0,36.758,58a1.821,1.821,0,0,0-1.336-.449,2.107,2.107,0,0,0-1.3.391,1.151,1.151,0,0,0-.523.945H32.148a2,2,0,0,1,.449-1.223,3.066,3.066,0,0,1,1.219-.934,4.1,4.1,0,0,1,1.691-.344,3.342,3.342,0,0,1,2.289.73,2.635,2.635,0,0,1,.859,2.012v3.891a4.757,4.757,0,0,0,.3,1.852V65Zm-2.4-1.1a2.54,2.54,0,0,0,1.289-.352,2.127,2.127,0,0,0,.883-.914V60.9H36.078q-2.656,0-2.656,1.555a1.316,1.316,0,0,0,.453,1.063A1.742,1.742,0,0,0,35.039,63.9ZM42.492,65H41.047V53h1.445Zm3.883,0H44.93V56.547h1.445ZM44.813,54.3a.863.863,0,0,1,.215-.594.807.807,0,0,1,.637-.242.819.819,0,0,1,.641.242.854.854,0,0,1,.219.594.826.826,0,0,1-.219.586.834.834,0,0,1-.641.234.821.821,0,0,1-.637-.234A.834.834,0,0,1,44.813,54.3Zm5.234,9.516h4.945V65H48.281V63.938l4.664-6.2H48.352v-1.2h6.406V57.57ZM61.836,65a3.036,3.036,0,0,1-.2-.891,3.225,3.225,0,0,1-2.406,1.047,2.984,2.984,0,0,1-2.051-.707,2.287,2.287,0,0,1-.8-1.793,2.39,2.39,0,0,1,1-2.051,4.733,4.733,0,0,1,2.824-.73h1.406v-.664A1.623,1.623,0,0,0,61.156,58a1.821,1.821,0,0,0-1.336-.449,2.107,2.107,0,0,0-1.3.391,1.151,1.151,0,0,0-.523.945H56.547A2,2,0,0,1,57,57.668a3.066,3.066,0,0,1,1.219-.934,4.1,4.1,0,0,1,1.691-.344,3.342,3.342,0,0,1,2.289.73,2.635,2.635,0,0,1,.859,2.012v3.891a4.757,4.757,0,0,0,.3,1.852V65Zm-2.4-1.1a2.54,2.54,0,0,0,1.289-.352,2.127,2.127,0,0,0,.883-.914V60.9H60.477q-2.656,0-2.656,1.555a1.316,1.316,0,0,0,.453,1.063A1.742,1.742,0,0,0,59.438,63.9Zm5.531-3.2a4.952,4.952,0,0,1,.922-3.129,3.137,3.137,0,0,1,4.766-.168V53H72.1V65H70.773l-.07-.906a2.943,2.943,0,0,1-2.414,1.063,2.887,2.887,0,0,1-2.395-1.2,5.008,5.008,0,0,1-.926-3.141Zm1.445.164a3.749,3.749,0,0,0,.594,2.25,1.92,1.92,0,0,0,1.641.813A2.108,2.108,0,0,0,70.656,62.7V58.813a2.125,2.125,0,0,0-1.992-1.2,1.929,1.929,0,0,0-1.656.82A4.128,4.128,0,0,0,66.414,60.867ZM79.563,65a3.036,3.036,0,0,1-.2-.891,3.225,3.225,0,0,1-2.406,1.047,2.984,2.984,0,0,1-2.051-.707,2.288,2.288,0,0,1-.8-1.793,2.39,2.39,0,0,1,1-2.051,4.733,4.733,0,0,1,2.824-.73h1.406v-.664A1.623,1.623,0,0,0,78.883,58a1.821,1.821,0,0,0-1.336-.449,2.107,2.107,0,0,0-1.3.391,1.151,1.151,0,0,0-.523.945H74.273a2,2,0,0,1,.449-1.223,3.066,3.066,0,0,1,1.219-.934,4.1,4.1,0,0,1,1.691-.344,3.342,3.342,0,0,1,2.289.73,2.635,2.635,0,0,1,.859,2.012v3.891a4.757,4.757,0,0,0,.3,1.852V65Zm-2.4-1.1a2.54,2.54,0,0,0,1.289-.352,2.127,2.127,0,0,0,.883-.914V60.9H78.2q-2.656,0-2.656,1.555A1.316,1.316,0,0,0,76,63.516,1.742,1.742,0,0,0,77.164,63.9Zm16.984-3.031a5.062,5.062,0,0,1-.883,3.109,2.829,2.829,0,0,1-2.391,1.18,3.1,3.1,0,0,1-2.422-.977v4.07H87.008v-11.7h1.32l.07.938a2.977,2.977,0,0,1,2.453-1.094,2.882,2.882,0,0,1,2.41,1.148,5.117,5.117,0,0,1,.887,3.2ZM92.7,60.7a3.735,3.735,0,0,0-.609-2.258,1.963,1.963,0,0,0-1.672-.828,2.125,2.125,0,0,0-1.969,1.164V62.82a2.129,2.129,0,0,0,1.984,1.156,1.954,1.954,0,0,0,1.652-.824A4.077,4.077,0,0,0,92.7,60.7Zm8.5,4.3a3.036,3.036,0,0,1-.2-.891,3.225,3.225,0,0,1-2.406,1.047,2.984,2.984,0,0,1-2.051-.707,2.288,2.288,0,0,1-.8-1.793,2.39,2.39,0,0,1,1-2.051,4.733,4.733,0,0,1,2.824-.73h1.406v-.664A1.623,1.623,0,0,0,100.523,58a1.821,1.821,0,0,0-1.336-.449,2.107,2.107,0,0,0-1.3.391,1.151,1.151,0,0,0-.523.945H95.914a2,2,0,0,1,.449-1.223,3.066,3.066,0,0,1,1.219-.934,4.1,4.1,0,0,1,1.691-.344,3.342,3.342,0,0,1,2.289.73,2.635,2.635,0,0,1,.859,2.012v3.891a4.757,4.757,0,0,0,.3,1.852V65Zm-2.4-1.1a2.54,2.54,0,0,0,1.289-.352,2.127,2.127,0,0,0,.883-.914V60.9H99.844q-2.656,0-2.656,1.555a1.316,1.316,0,0,0,.453,1.063A1.742,1.742,0,0,0,98.8,63.9Zm9.969-6.055a4.331,4.331,0,0,0-.711-.055A1.9,1.9,0,0,0,106.133,59v6h-1.445V56.547h1.406l.023.977a2.251,2.251,0,0,1,2.016-1.133,1.477,1.477,0,0,1,.641.109ZM115.008,65a3.036,3.036,0,0,1-.2-.891,3.225,3.225,0,0,1-2.406,1.047,2.984,2.984,0,0,1-2.051-.707,2.288,2.288,0,0,1-.8-1.793,2.39,2.39,0,0,1,1-2.051,4.733,4.733,0,0,1,2.824-.73h1.406v-.664A1.623,1.623,0,0,0,114.328,58a1.821,1.821,0,0,0-1.336-.449,2.107,2.107,0,0,0-1.3.391,1.151,1.151,0,0,0-.523.945h-1.453a2,2,0,0,1,.449-1.223,3.066,3.066,0,0,1,1.219-.934,4.1,4.1,0,0,1,1.691-.344,3.342,3.342,0,0,1,2.289.73,2.635,2.635,0,0,1,.859,2.012v3.891a4.757,4.757,0,0,0,.3,1.852V65Zm-2.4-1.1a2.54,2.54,0,0,0,1.289-.352,2.127,2.127,0,0,0,.883-.914V60.9h-1.133q-2.656,0-2.656,1.555a1.316,1.316,0,0,0,.453,1.063A1.742,1.742,0,0,0,112.609,63.9Zm14.766-1.141a1.064,1.064,0,0,0-.441-.91,4.249,4.249,0,0,0-1.539-.559,7.277,7.277,0,0,1-1.742-.562,2.479,2.479,0,0,1-.953-.781,1.869,1.869,0,0,1-.309-1.078,2.193,2.193,0,0,1,.879-1.758,3.432,3.432,0,0,1,2.246-.719,3.532,3.532,0,0,1,2.332.742,2.357,2.357,0,0,1,.895,1.9h-1.453a1.3,1.3,0,0,0-.5-1.023,1.888,1.888,0,0,0-1.27-.43,1.976,1.976,0,0,0-1.234.344,1.082,1.082,0,0,0-.445.9.877.877,0,0,0,.414.789,5.1,5.1,0,0,0,1.5.508,7.8,7.8,0,0,1,1.754.578,2.558,2.558,0,0,1,1,.809,1.988,1.988,0,0,1,.324,1.152,2.163,2.163,0,0,1-.906,1.816,3.8,3.8,0,0,1-2.352.684,4.257,4.257,0,0,1-1.8-.359,2.922,2.922,0,0,1-1.223-1A2.42,2.42,0,0,1,122.1,62.4h1.445a1.5,1.5,0,0,0,.582,1.152,2.258,2.258,0,0,0,1.434.426,2.331,2.331,0,0,0,1.316-.332A1.02,1.02,0,0,0,127.375,62.758Zm8.547,1.406a3.07,3.07,0,0,1-2.477.992,2.628,2.628,0,0,1-2.059-.785,3.4,3.4,0,0,1-.715-2.324v-5.5h1.445v5.461q0,1.922,1.563,1.922a2.163,2.163,0,0,0,2.2-1.234V56.547h1.445V65h-1.375Zm12.781,0a3.07,3.07,0,0,1-2.477.992,2.628,2.628,0,0,1-2.059-.785,3.4,3.4,0,0,1-.715-2.324v-5.5H144.9v5.461q0,1.922,1.563,1.922a2.163,2.163,0,0,0,2.2-1.234V56.547h1.445V65h-1.375Zm8.523-1.406a1.064,1.064,0,0,0-.441-.91,4.249,4.249,0,0,0-1.539-.559,7.277,7.277,0,0,1-1.742-.562,2.479,2.479,0,0,1-.953-.781,1.869,1.869,0,0,1-.309-1.078,2.193,2.193,0,0,1,.879-1.758,3.432,3.432,0,0,1,2.246-.719,3.532,3.532,0,0,1,2.332.742,2.357,2.357,0,0,1,.895,1.9h-1.453a1.3,1.3,0,0,0-.5-1.023,1.888,1.888,0,0,0-1.27-.43,1.976,1.976,0,0,0-1.234.344,1.082,1.082,0,0,0-.445.9.877.877,0,0,0,.414.789,5.1,5.1,0,0,0,1.5.508,7.8,7.8,0,0,1,1.754.578,2.558,2.558,0,0,1,1,.809,1.988,1.988,0,0,1,.324,1.152,2.163,2.163,0,0,1-.906,1.816,3.8,3.8,0,0,1-2.352.684,4.257,4.257,0,0,1-1.8-.359,2.922,2.922,0,0,1-1.223-1,2.42,2.42,0,0,1-.441-1.395H153.4a1.5,1.5,0,0,0,.582,1.152,2.258,2.258,0,0,0,1.434.426,2.331,2.331,0,0,0,1.316-.332A1.02,1.02,0,0,0,157.227,62.758Zm2.945-2.062a4.993,4.993,0,0,1,.488-2.234,3.642,3.642,0,0,1,1.359-1.531,3.7,3.7,0,0,1,1.988-.539,3.565,3.565,0,0,1,2.793,1.2,4.6,4.6,0,0,1,1.066,3.18v.1a5.036,5.036,0,0,1-.473,2.215,3.589,3.589,0,0,1-1.352,1.527,3.743,3.743,0,0,1-2.02.547,3.556,3.556,0,0,1-2.785-1.2,4.575,4.575,0,0,1-1.066-3.164Zm1.453.172a3.616,3.616,0,0,0,.652,2.258,2.211,2.211,0,0,0,3.5-.012,3.954,3.954,0,0,0,.648-2.418,3.61,3.61,0,0,0-.66-2.254,2.1,2.1,0,0,0-1.754-.863,2.075,2.075,0,0,0-1.727.852A3.925,3.925,0,0,0,161.625,60.867Zm8.086,3.375a.905.905,0,0,1,.223-.625.848.848,0,0,1,.668-.25.874.874,0,0,1,.676.25.887.887,0,0,1,.23.625.839.839,0,0,1-.23.6.89.89,0,0,1-.676.242.8.8,0,0,1-.891-.844Z" transform="translate(201.16 4034)" fill="#12263f"/></g><g transform="translate(-7098.842 -12319.277)"><g transform="matrix(1, 0, 0, 1, 122.26, 3901.99)" filter="url(#m)"><rect width="228" height="154" rx="20" transform="translate(57.74 107.01)" fill="#fff"/></g><text transform="translate(212 4030)" fill="#12263f" font-size="16" font-family="Roboto-Regular, Roboto"><tspan x="0" y="17">El ERP tiene como una de </tspan><tspan x="0" y="41">sus finalidades, evitar las </tspan><tspan x="0" y="65">manualidades y por tanto, </tspan><tspan x="0" y="89">optimizar los tiempos de </tspan><tspan x="0" y="113">las personas. </tspan></text></g><g transform="translate(-6714.46 -8426.121)"><g transform="translate(45.652 50.393)"><g transform="translate(22.817 116.05)"><path d="M189.4,234.633H67.806a19.815,19.815,0,0,1-19.757-19.757V199.912a19.815,19.815,0,0,1,19.757-19.757H189.4a19.815,19.815,0,0,1,19.757,19.757v14.964A19.815,19.815,0,0,1,189.4,234.633Z" transform="translate(-48.049 -180.155)" fill="#e1e1ff"/><path d="M182.286,225.208H78.607a13.692,13.692,0,0,1-13.652-13.652v-4.689a13.692,13.692,0,0,1,13.652-13.652H182.286a13.692,13.692,0,0,1,13.652,13.652v4.689A13.691,13.691,0,0,1,182.286,225.208Z" transform="translate(-49.718 -181.444)" fill="#9d92f5"/><path d="M122.7,214.059H79.017a4.192,4.192,0,0,1-4.179-4.179h0a4.192,4.192,0,0,1,4.179-4.179H122.7a4.192,4.192,0,0,1,4.179,4.179h0A4.192,4.192,0,0,1,122.7,214.059Z" transform="translate(-50.694 -182.677)" fill="#2d1a14"/><path d="M146.926,214.059h0a4.192,4.192,0,0,1-4.179-4.179h0a4.192,4.192,0,0,1,4.179-4.179h0a4.192,4.192,0,0,1,4.179,4.179h0A4.191,4.191,0,0,1,146.926,214.059Z" transform="translate(-57.398 -182.677)" fill="#ff6940"/><path d="M162.628,214.059h0a4.192,4.192,0,0,1-4.179-4.179h0a4.192,4.192,0,0,1,4.179-4.179h0a4.192,4.192,0,0,1,4.179,4.179h0A4.192,4.192,0,0,1,162.628,214.059Z" transform="translate(-58.948 -182.677)" fill="#ff6940"/><path d="M180.533,214.1h0a4.192,4.192,0,0,1-4.179-4.179h0a4.192,4.192,0,0,1,4.179-4.179h0a4.192,4.192,0,0,1,4.179,4.179h0A4.191,4.191,0,0,1,180.533,214.1Z" transform="translate(-60.716 -182.681)" fill="#ff9e00"/></g><g transform="translate(23.121 176.463)"><path d="M189.737,301.663H68.144a19.815,19.815,0,0,1-19.757-19.757V266.943a19.815,19.815,0,0,1,19.757-19.757H189.737a19.815,19.815,0,0,1,19.757,19.757v14.963A19.815,19.815,0,0,1,189.737,301.663Z" transform="translate(-48.387 -247.186)" fill="#e1e1ff"/><path d="M182.624,292.239H78.945a13.692,13.692,0,0,1-13.652-13.652V273.9a13.692,13.692,0,0,1,13.652-13.652H182.624A13.692,13.692,0,0,1,196.275,273.9v4.689A13.691,13.691,0,0,1,182.624,292.239Z" transform="translate(-50.056 -248.475)" fill="#9d92f5"/><path d="M123.035,281.089H79.355a4.192,4.192,0,0,1-4.179-4.179h0a4.192,4.192,0,0,1,4.179-4.179h43.679a4.192,4.192,0,0,1,4.179,4.179h0A4.192,4.192,0,0,1,123.035,281.089Z" transform="translate(-51.032 -249.708)" fill="#2d1a14"/><path d="M147.264,281.089h0a4.192,4.192,0,0,1-4.179-4.179h0a4.192,4.192,0,0,1,4.179-4.179h0a4.192,4.192,0,0,1,4.179,4.179h0A4.191,4.191,0,0,1,147.264,281.089Z" transform="translate(-57.736 -249.708)" fill="#ff6940"/><path d="M162.966,281.089h0a4.192,4.192,0,0,1-4.179-4.179h0a4.192,4.192,0,0,1,4.179-4.179h0a4.192,4.192,0,0,1,4.179,4.179h0A4.192,4.192,0,0,1,162.966,281.089Z" transform="translate(-59.286 -249.708)" fill="#ff6940"/><path d="M180.871,281.129h0a4.192,4.192,0,0,1-4.179-4.179h0a4.192,4.192,0,0,1,4.179-4.179h0a4.192,4.192,0,0,1,4.179,4.179h0A4.192,4.192,0,0,1,180.871,281.129Z" transform="translate(-61.054 -249.712)" fill="#ff9e00"/></g><g transform="translate(23.426 236.875)"><path d="M190.075,368.693H68.482a19.815,19.815,0,0,1-19.757-19.757V333.972a19.815,19.815,0,0,1,19.757-19.757H190.074a19.815,19.815,0,0,1,19.757,19.757v14.964A19.813,19.813,0,0,1,190.075,368.693Z" transform="translate(-48.725 -314.215)" fill="#e1e1ff"/><path d="M182.963,359.269H79.284a13.692,13.692,0,0,1-13.652-13.652v-4.689a13.692,13.692,0,0,1,13.652-13.652H182.963a13.692,13.692,0,0,1,13.652,13.652v4.689A13.692,13.692,0,0,1,182.963,359.269Z" transform="translate(-50.394 -315.505)" fill="#9d92f5"/><path d="M123.373,348.119H79.693a4.192,4.192,0,0,1-4.179-4.179h0a4.192,4.192,0,0,1,4.179-4.179h43.679a4.192,4.192,0,0,1,4.179,4.179h0A4.191,4.191,0,0,1,123.373,348.119Z" transform="translate(-51.37 -316.737)" fill="#2d1a14"/><path d="M147.6,348.119h0a4.192,4.192,0,0,1-4.179-4.179h0a4.192,4.192,0,0,1,4.179-4.179h0a4.192,4.192,0,0,1,4.179,4.179h0A4.191,4.191,0,0,1,147.6,348.119Z" transform="translate(-58.074 -316.737)" fill="#ff6940"/><path d="M163.3,348.119h0a4.192,4.192,0,0,1-4.179-4.179h0a4.192,4.192,0,0,1,4.179-4.179h0a4.192,4.192,0,0,1,4.179,4.179h0A4.191,4.191,0,0,1,163.3,348.119Z" transform="translate(-59.624 -316.737)" fill="#ff6940"/><path d="M181.209,348.159h0a4.192,4.192,0,0,1-4.179-4.179h0a4.192,4.192,0,0,1,4.179-4.179h0a4.192,4.192,0,0,1,4.179,4.179h0A4.192,4.192,0,0,1,181.209,348.159Z" transform="translate(-61.392 -316.741)" fill="#ff9e00"/></g><g transform="translate(23.731 297.287)"><path d="M190.413,435.723H68.82a19.815,19.815,0,0,1-19.757-19.757V401A19.815,19.815,0,0,1,68.82,381.245H190.412A19.815,19.815,0,0,1,210.168,401v14.964A19.813,19.813,0,0,1,190.413,435.723Z" transform="translate(-49.063 -381.245)" fill="#e1e1ff"/><path d="M183.3,426.3H79.622A13.692,13.692,0,0,1,65.97,412.647v-4.689a13.692,13.692,0,0,1,13.652-13.652H183.3a13.692,13.692,0,0,1,13.652,13.652v4.689A13.692,13.692,0,0,1,183.3,426.3Z" transform="translate(-50.732 -382.534)" fill="#9d92f5"/><path d="M123.711,415.149H80.031a4.192,4.192,0,0,1-4.179-4.179h0a4.192,4.192,0,0,1,4.179-4.179h43.679a4.192,4.192,0,0,1,4.179,4.179h0A4.191,4.191,0,0,1,123.711,415.149Z" transform="translate(-51.708 -383.767)" fill="#2d1a14"/><path d="M147.941,415.149h0a4.192,4.192,0,0,1-4.179-4.179h0a4.192,4.192,0,0,1,4.179-4.179h0a4.192,4.192,0,0,1,4.179,4.179h0A4.191,4.191,0,0,1,147.941,415.149Z" transform="translate(-58.412 -383.767)" fill="#ff6940"/><path d="M163.642,415.149h0a4.192,4.192,0,0,1-4.179-4.179h0a4.192,4.192,0,0,1,4.179-4.179h0a4.192,4.192,0,0,1,4.179,4.179h0A4.191,4.191,0,0,1,163.642,415.149Z" transform="translate(-59.962 -383.767)" fill="#ff6940"/><path d="M181.547,415.189h0a4.192,4.192,0,0,1-4.179-4.179h0a4.192,4.192,0,0,1,4.179-4.179h0a4.192,4.192,0,0,1,4.179,4.179h0A4.191,4.191,0,0,1,181.547,415.189Z" transform="translate(-61.73 -383.771)" fill="#ff9e00"/></g><path d="M54.187,179.84a4.654,4.654,0,1,1-4.654-4.654A4.654,4.654,0,0,1,54.187,179.84Z" transform="translate(-24.919 -63.615)" fill="none" stroke="#c9c7ff" stroke-linecap="round" stroke-linejoin="round" stroke-miterlimit="10" stroke-width="1.346"/><path d="M233.12,180.286a4.654,4.654,0,1,1-4.654-4.654A4.654,4.654,0,0,1,233.12,180.286Z" transform="translate(-42.585 -63.659)" fill="none" stroke="#c9c7ff" stroke-linecap="round" stroke-linejoin="round" stroke-miterlimit="10" stroke-width="1.346"/><path d="M424.079,157.353a33.959,33.959,0,0,0-25.708-48.068,33.955,33.955,0,0,0-41.559-17.608,52.981,52.981,0,0,0-85.063,63.168,18.975,18.975,0,0,0-15.742,18.636h0a18.963,18.963,0,0,0,18.908,18.908H414.245a18.963,18.963,0,0,0,18.908-18.908h0A18.948,18.948,0,0,0,424.079,157.353Z" transform="translate(-45.763 -53.315)" fill="#c9c7ff"/><g transform="translate(224.107 102.209)"><g transform="translate(40.546 81.657)"><path d="M423.276,267.547l.187-11.52-42.9-.627-.187,11.52L317.313,266l-.937,69.982,105.962,1.549.756-58.766h0l.115-7.083Z" transform="translate(-316.376 -255.4)" fill="#211d1d"/></g><rect width="67.861" height="77.645" transform="translate(26.744 43.137)" fill="#fce8e8"/><rect width="60.096" height="64.704" transform="translate(26.744 43.137)" fill="#211d1d"/><g transform="translate(40.055 95.905)"><path d="M448.442,283.222l5.192-11.38-43.118-.634-5.192,11.38-63.395-.932-26.1,57.2,106.512,1.566L443.387,294.3h0l3.192-7Z" transform="translate(-315.832 -271.208)" fill="#ff9e00"/></g><path d="M350.844,265.305H271.389V195.1l30.3-30.3h49.151Z" transform="translate(-271.389 -164.798)" fill="#fce8e8"/><path d="M301.693,195.1h-30.3l30.3-30.3Z" transform="translate(-271.389 -164.798)" fill="#211d1d"/><path d="M344.225,207.616H282.608a1.52,1.52,0,0,1-1.515-1.515h0a1.52,1.52,0,0,1,1.515-1.515h61.617a1.52,1.52,0,0,1,1.515,1.515h0A1.52,1.52,0,0,1,344.225,207.616Z" transform="translate(-272.347 -168.726)" fill="#9d92f5"/><path d="M347.576,198.089h-35.07a1.155,1.155,0,0,1-1.152-1.152v-.726a1.155,1.155,0,0,1,1.152-1.152h35.07a1.155,1.155,0,0,1,1.152,1.152v.726A1.155,1.155,0,0,1,347.576,198.089Z" transform="translate(-275.335 -167.786)" fill="#9d92f5"/><path d="M347.576,188.563h-35.07a1.155,1.155,0,0,1-1.152-1.152v-.726a1.155,1.155,0,0,1,1.152-1.152h35.07a1.155,1.155,0,0,1,1.152,1.152v.726A1.155,1.155,0,0,1,347.576,188.563Z" transform="translate(-275.335 -166.845)" fill="#9d92f5"/><path d="M330.522,185.533H312.506a1.155,1.155,0,0,0-1.152,1.152v.726a1.155,1.155,0,0,0,1.152,1.152h18.016Z" transform="translate(-275.335 -166.845)" fill="#ff6940"/><path d="M347.576,179.036h-35.07a1.155,1.155,0,0,1-1.152-1.152v-.726a1.155,1.155,0,0,1,1.152-1.152h35.07a1.155,1.155,0,0,1,1.152,1.152v.726A1.155,1.155,0,0,1,347.576,179.036Z" transform="translate(-275.335 -165.905)" fill="#9d92f5"/><path d="M344.225,218.824H282.608a1.52,1.52,0,0,1-1.515-1.515h0a1.52,1.52,0,0,1,1.515-1.515h61.617a1.52,1.52,0,0,1,1.515,1.515h0A1.52,1.52,0,0,1,344.225,218.824Z" transform="translate(-272.347 -169.833)" fill="#9d92f5"/><path d="M344.225,230.031H282.608a1.52,1.52,0,0,1-1.515-1.515h0A1.52,1.52,0,0,1,282.608,227h61.617a1.52,1.52,0,0,1,1.515,1.515h0A1.519,1.519,0,0,1,344.225,230.031Z" transform="translate(-272.347 -170.939)" fill="#9d92f5"/><path d="M344.225,241.239H282.608a1.52,1.52,0,0,1-1.515-1.515h0a1.52,1.52,0,0,1,1.515-1.515h61.617a1.52,1.52,0,0,1,1.515,1.515h0A1.52,1.52,0,0,1,344.225,241.239Z" transform="translate(-272.347 -172.046)" fill="#9d92f5"/><path d="M344.225,252.447H282.608a1.52,1.52,0,0,1-1.515-1.515h0a1.52,1.52,0,0,1,1.515-1.515h61.617a1.52,1.52,0,0,1,1.515,1.515h0A1.52,1.52,0,0,1,344.225,252.447Z" transform="translate(-272.347 -173.152)" fill="#9d92f5"/><path d="M299.522,204.586H282.608a1.515,1.515,0,1,0,0,3.03h16.914Z" transform="translate(-272.347 -168.726)" fill="#ff6940"/><path d="M307.329,227H282.608a1.515,1.515,0,1,0,0,3.03h24.721Z" transform="translate(-272.347 -170.939)" fill="#ff6940"/><path d="M294.471,249.417H282.608a1.515,1.515,0,1,0,0,3.03h11.863Z" transform="translate(-272.347 -173.152)" fill="#ff6940"/><path d="M344.225,262.534H282.608a1.52,1.52,0,0,1-1.515-1.515h0a1.52,1.52,0,0,1,1.515-1.515h61.617a1.52,1.52,0,0,1,1.515,1.515h0A1.52,1.52,0,0,1,344.225,262.534Z" transform="translate(-272.347 -174.148)" fill="#9d92f5"/><line x2="106.712" transform="translate(60.898 117.87)" fill="none" stroke="#2d1a14" stroke-linecap="round" stroke-linejoin="round" stroke-miterlimit="10" stroke-width="0.949"/></g><path d="M237.435,240.6H255.9V431.065" transform="translate(-43.93 -70.073)" fill="none" stroke="#2d1a14" stroke-linecap="round" stroke-linejoin="round" stroke-miterlimit="10" stroke-width="0.922"/><path d="M237.435,289.284H264.8V435.871" transform="translate(-43.93 -74.879)" fill="none" stroke="#2d1a14" stroke-linecap="round" stroke-linejoin="round" stroke-miterlimit="10" stroke-width="0.985"/><path d="M237.435,344.4h35.452v96.914" transform="translate(-43.93 -80.32)" fill="none" stroke="#2d1a14" stroke-linecap="round" stroke-linejoin="round" stroke-miterlimit="10" stroke-width="0.911"/><rect width="13.613" height="6.175" transform="translate(193.505 166.468)" fill="#fce8e8"/><rect width="13.613" height="6.175" transform="translate(193.505 211.317)" fill="#fce8e8"/><rect width="13.613" height="6.175" transform="translate(193.505 260.991)" fill="#fce8e8"/><g transform="translate(193.505 277.058)"><path d="M434.047,440.833l19.737-67.669A11.154,11.154,0,0,0,443.226,358.8H335.874a11.011,11.011,0,0,0-10.174,6.907L296.741,439.7" transform="translate(-243.29 -358.8)" fill="#5231fd"/><path d="M428.965,436.175l17.728-60.005a9.914,9.914,0,0,0-9.483-12.737H340.785a9.889,9.889,0,0,0-9.138,6.125L305.635,435.17" transform="translate(-244.168 -359.257)" fill="#211d1d"/><path d="M240.469,451.263H426.162a3.042,3.042,0,0,0,3.034-3.034h0a3.042,3.042,0,0,0-3.034-3.034H240.469a3.043,3.043,0,0,0-3.034,3.034h0A3.043,3.043,0,0,0,240.469,451.263Z" transform="translate(-237.435 -367.33)" fill="#211d1d"/><path d="M363.374,451.263H438.3a3.042,3.042,0,0,0,3.034-3.034h0A3.042,3.042,0,0,0,438.3,445.2H363.374a3.042,3.042,0,0,0-3.034,3.034h0A3.043,3.043,0,0,0,363.374,451.263Z" transform="translate(-249.569 -367.33)" fill="#9d92f5"/><path d="M325.727,449.622h23.384a.9.9,0,0,0,.9-.9h0a.9.9,0,0,0-.9-.9H325.727a.9.9,0,0,0-.9.9h0A.9.9,0,0,0,325.727,449.622Z" transform="translate(-246.063 -367.589)" fill="#ff6940"/><path d="M256.286,448.427a1.237,1.237,0,1,0,1.237-1.237A1.236,1.236,0,0,0,256.286,448.427Z" transform="translate(-239.296 -367.526)" fill="#ff6940"/><path d="M249.291,448.427a1.237,1.237,0,1,0,1.237-1.237A1.236,1.236,0,0,0,249.291,448.427Z" transform="translate(-238.605 -367.526)" fill="#ff6940"/></g><g transform="translate(311.266 294.355)"><path d="M389.373,428.485a4.247,4.247,0,1,1-4.247-4.247A4.247,4.247,0,0,1,389.373,428.485Z" transform="translate(-369.357 -382.558)" fill="#ff9e00"/><line y2="39.433" transform="translate(15.769 6.494)" fill="none" stroke="#ff9e00" stroke-linecap="round" stroke-linejoin="round" stroke-miterlimit="10" stroke-width="0.897"/><path d="M396.332,385.2v20.364l-12.082,10.374L372,409.683V392.478" transform="translate(-368.481 -378.703)" fill="none" stroke="#ff9e00" stroke-linecap="round" stroke-linejoin="round" stroke-miterlimit="10" stroke-width="0.897"/><path d="M375.135,392.086a3.52,3.52,0,1,1-3.52-3.52A3.52,3.52,0,0,1,375.135,392.086Z" transform="translate(-368.095 -379.036)" fill="#ff9e00"/><path d="M388.725,381.511a3.52,3.52,0,1,1-3.52-3.519A3.521,3.521,0,0,1,388.725,381.511Z" transform="translate(-369.437 -377.992)" fill="#ff9e00"/><path d="M402.132,385.417a3.52,3.52,0,1,1-3.52-3.52A3.521,3.521,0,0,1,402.132,385.417Z" transform="translate(-370.76 -378.378)" fill="#ff9e00"/></g><g transform="translate(321.775 113.646)"><g transform="translate(7.155 7.643)"><path d="M406.129,185.968a18.438,18.438,0,1,0,18.435,18.441A18.435,18.435,0,0,0,406.129,185.968Zm0,29.154a10.717,10.717,0,1,1,10.72-10.713A10.715,10.715,0,0,1,406.129,215.122Z" transform="translate(-387.694 -185.968)" fill="#211d1d"/></g><g transform="translate(22.723)"><path d="M410.531,186.932h-5.564l1.349-9.444h3.541Z" transform="translate(-404.967 -177.488)" fill="#211d1d"/></g><g transform="translate(22.638 41.483)"><path d="M404.873,223.515h5.565l-1.349,9.444h-3.541Z" transform="translate(-404.873 -223.515)" fill="#211d1d"/></g><g transform="translate(41.483 22.723)"><path d="M425.782,208.264V202.7l9.444,1.349v3.541Z" transform="translate(-425.782 -202.7)" fill="#211d1d"/></g><g transform="translate(0 22.639)"><path d="M389.2,202.607v5.564l-9.444-1.349v-3.541Z" transform="translate(-379.755 -202.607)" fill="#211d1d"/></g><g transform="translate(34.794 34.853)"><path d="M418.36,220.094l3.935-3.935,5.723,7.631-2.5,2.5Z" transform="translate(-418.36 -216.159)" fill="#211d1d"/></g><g transform="translate(6.475 5.938)"><path d="M396.6,190.277l-3.935,3.935-5.723-7.631,2.5-2.5Z" transform="translate(-386.939 -184.077)" fill="#211d1d"/></g><g transform="translate(5.938 34.794)"><path d="M392.544,216.093l3.935,3.935-7.631,5.723-2.5-2.5Z" transform="translate(-386.343 -216.093)" fill="#211d1d"/></g><g transform="translate(34.853 6.475)"><path d="M422.361,194.33l-3.935-3.935,7.631-5.723,2.5,2.5Z" transform="translate(-418.426 -184.672)" fill="#211d1d"/></g><g transform="translate(1.258 1.258)"><g transform="translate(27.519)"><path d="M416.863,189.214l-5.179-2.036,4.712-8.294,3.3,1.3Z" transform="translate(-411.684 -178.884)" fill="#211d1d"/></g><g transform="translate(12.884 38.08)"><path d="M398.275,221.135l5.179,2.037-4.712,8.294-3.3-1.3Z" transform="translate(-395.446 -221.135)" fill="#211d1d"/></g><g transform="translate(38.079 27.519)"><path d="M423.4,214.6l2.037-5.179,8.294,4.712-1.3,3.3Z" transform="translate(-423.401 -209.417)" fill="#211d1d"/></g><g transform="translate(0 12.885)"><path d="M391.481,196.008l-2.037,5.179-8.293-4.712,1.3-3.3Z" transform="translate(-381.151 -193.18)" fill="#211d1d"/></g><g transform="translate(28.011 37.799)"><path d="M412.23,223.045l5.1-2.222,2.534,9.2-3.247,1.414Z" transform="translate(-412.23 -220.823)" fill="#211d1d"/></g><g transform="translate(12.764 0.001)"><path d="M402.949,187.274l-5.1,2.222-2.534-9.2,3.247-1.414Z" transform="translate(-395.313 -178.885)" fill="#211d1d"/></g><g transform="translate(0.001 28.011)"><path d="M389.54,209.963l2.222,5.1-9.2,2.533-1.413-3.247Z" transform="translate(-381.152 -209.963)" fill="#211d1d"/></g><g transform="translate(37.799 12.764)"><path d="M425.312,200.682l-2.222-5.1,9.2-2.533,1.414,3.247Z" transform="translate(-423.09 -193.046)" fill="#211d1d"/></g></g></g><path d="M290.731,136.974h-147.8a20.282,20.282,0,0,1-20.222-20.222h0A20.282,20.282,0,0,1,142.931,96.53h147.8a20.282,20.282,0,0,1,20.222,20.222h0A20.282,20.282,0,0,1,290.731,136.974Z" transform="translate(-32.603 -55.849)" fill="#e1e1ff"/><path d="M185.307,120.259c-5.417-1.113-11.664.328-16.087-2.991a11.965,11.965,0,0,1-4.26-8.022,22.14,22.14,0,0,1-.167-3.848,17.626,17.626,0,0,0,4.831-8.061,5.517,5.517,0,0,0,3.649,1.392,6.139,6.139,0,0,0,0-12.254,5.449,5.449,0,0,0-2.767.756q-.13-1.173-.362-2.292a16.13,16.13,0,0,0,9.844-19.056c.719,3.133-1.775,6.3-4.8,7.4s-6.371.607-9.51-.084-6.319-1.578-9.516-1.241a12.562,12.562,0,0,0-8.705,4.971,12.141,12.141,0,0,0-2.031,9.8.553.553,0,0,0-.13.094,5.424,5.424,0,0,0-1.873-.339,6.139,6.139,0,0,0,0,12.254,5.518,5.518,0,0,0,3.656-1.4,16.4,16.4,0,0,0,6.313,9.195,20.5,20.5,0,0,1-.183,2.72,11.968,11.968,0,0,1-4.26,8.022c-4.423,3.319-10.67,1.878-16.087,2.991-6.715,1.38-13.152,7.979-14.119,14.766h80.681C198.459,128.238,192.022,121.638,185.307,120.259Z" transform="translate(-32.212 -52.824)" fill="#211d1d"/><path d="M291.228,111.174H195.4a2.7,2.7,0,0,1-2.7-2.7h0a2.7,2.7,0,0,1,2.7-2.7h95.824a2.7,2.7,0,0,1,2.7,2.7h0A2.7,2.7,0,0,1,291.228,111.174Z" transform="translate(-39.514 -56.763)" fill="#9d92f5"/><path d="M300.293,124.66H204.468a2.7,2.7,0,0,1-2.7-2.7h0a2.7,2.7,0,0,1,2.7-2.7h95.825a2.7,2.7,0,0,1,2.7,2.7h0A2.705,2.705,0,0,1,300.293,124.66Z" transform="translate(-40.409 -58.094)" fill="#9d92f5"/><g transform="translate(274.256 0)"><g transform="translate(24.561 14.777)"><path d="M437.023,109.159a41.2,41.2,0,0,1-11.551,28.6c-.2.21-.4.416-.6.619a41.319,41.319,0,1,1-29.217-70.587c.784,0,1.566.02,2.338.068a41.5,41.5,0,0,1,39.032,41.3Z" transform="translate(-354.282 -67.789)" fill="#5231fd"/><path d="M427.455,82.857Q416.96,93.74,405.927,104.083c-12.743,11.973-25.91,23.466-39.233,34.778a41.2,41.2,0,0,0,59.4,1c.2-.2.4-.408.6-.619a41.174,41.174,0,0,0,.758-56.386Z" transform="translate(-355.507 -69.277)" fill="#211d1d"/><path d="M441.554,109.159A41.2,41.2,0,0,1,430,137.757l-29.82-28.6V67.789l2.338.068a41.5,41.5,0,0,1,39.032,41.3Z" transform="translate(-358.814 -67.789)" fill="#ff6940"/><path d="M400.982,114.457l29.1,27.908a41.2,41.2,0,0,0,11.543-27.908Z" transform="translate(-358.892 -72.396)" fill="#ff9e00"/><path d="M398.172,130.05h0A18.426,18.426,0,0,1,379.8,111.679h0a18.426,18.426,0,0,1,18.372-18.372h0a18.426,18.426,0,0,1,18.372,18.372h0A18.426,18.426,0,0,1,398.172,130.05Z" transform="translate(-356.801 -70.308)" fill="#fff"/></g><line x1="30.048" y1="18.504" transform="translate(6.643 28.358)" fill="none" stroke="#2d1a14" stroke-linecap="round" stroke-linejoin="round" stroke-miterlimit="10" stroke-width="0.922"/><line y1="25.95" x2="23.914" transform="translate(80.55 4.568)" fill="none" stroke="#2d1a14" stroke-linecap="round" stroke-linejoin="round" stroke-miterlimit="10" stroke-width="0.922"/><line x2="24.13" y2="12.828" transform="translate(89.002 68.297)" fill="none" stroke="#2d1a14" stroke-linecap="round" stroke-linejoin="round" stroke-miterlimit="10" stroke-width="0.922"/><path d="M336.166,79.686a4.568,4.568,0,1,1-4.568-4.568A4.568,4.568,0,0,1,336.166,79.686Z" transform="translate(-327.031 -53.735)" fill="#fff" stroke="#000" stroke-linecap="round" stroke-linejoin="round" stroke-miterlimit="10" stroke-width="1.795"/><circle cx="4.568" cy="4.568" r="4.568" transform="translate(99.896)" fill="#fff" stroke="#000" stroke-linecap="round" stroke-linejoin="round" stroke-miterlimit="10" stroke-width="1.795"/><path d="M461.426,142.848a4.568,4.568,0,1,1-4.568-4.568A4.568,4.568,0,0,1,461.426,142.848Z" transform="translate(-339.397 -59.971)" fill="#fff" stroke="#000" stroke-linecap="round" stroke-linejoin="round" stroke-miterlimit="10" stroke-width="1.795"/><line x2="24.131" y2="12.827" transform="translate(77.209 91.331)" fill="none" stroke="#2d1a14" stroke-linecap="round" stroke-linejoin="round" stroke-miterlimit="10" stroke-width="0.922"/><path d="M448.343,168.4a4.568,4.568,0,1,1-4.568-4.568A4.568,4.568,0,0,1,448.343,168.4Z" transform="translate(-338.106 -62.494)" fill="#fff" stroke="#000" stroke-linecap="round" stroke-linejoin="round" stroke-miterlimit="10" stroke-width="1.795"/></g><rect width="176.652" height="254.094" transform="translate(16.853 106.897)" fill="none" stroke="#c9c7ff" stroke-linecap="round" stroke-linejoin="round" stroke-miterlimit="10" stroke-width="1.346"/><line x2="395.229" transform="translate(6.736 360.992)" fill="none" stroke="#2d1a14" stroke-linecap="round" stroke-linejoin="round" stroke-miterlimit="10" stroke-width="2.312"/><g transform="translate(0 32.86)"><g transform="translate(15.889)"><path d="M58.561,162.292a18.219,18.219,0,0,1-18.2-18.2V106.05a18.2,18.2,0,1,1,36.4,0v38.045A18.219,18.219,0,0,1,58.561,162.292Zm0-71.047a14.821,14.821,0,0,0-14.8,14.8v38.045a14.821,14.821,0,0,0,14.8,14.8h0a14.821,14.821,0,0,0,14.8-14.8V106.05A14.819,14.819,0,0,0,58.561,91.245Z" transform="translate(-40.363 -87.852)" fill="#9d92f5"/></g><g transform="translate(15.889 33.256)"><path d="M73.364,124.751v22.986a14.821,14.821,0,0,1-14.8,14.8h0a14.821,14.821,0,0,1-14.8-14.8V124.751H40.363v22.986a18.2,18.2,0,1,0,36.4,0V124.751Z" transform="translate(-40.363 -124.751)" fill="#2d1a14"/></g><circle cx="28.387" cy="28.387" r="28.387" transform="translate(5.2 33.669)" fill="#ff9e00"/><circle cx="23.749" cy="23.749" r="23.749" transform="translate(0 62.055) rotate(-45)" fill="none" stroke="#2d1a14" stroke-linecap="round" stroke-linejoin="round" stroke-miterlimit="10" stroke-width="0.774"/><g transform="translate(28.484 56.092)"><path d="M59.44,160.294h0a5.118,5.118,0,0,1-5.1-5.1h0a5.118,5.118,0,0,1,5.1-5.1h0a5.118,5.118,0,0,1,5.1,5.1h0A5.118,5.118,0,0,1,59.44,160.294Z" transform="translate(-54.337 -150.088)" fill="#2d1a14"/><path d="M59.491,167.616H54.5l2.5-4.323,2.5-4.324,2.5,4.324,2.5,4.323Z" transform="translate(-54.353 -150.965)" fill="#2d1a14"/></g></g></g></g><g transform="translate(-7261.348 -11944)"><g transform="translate(419.348 3572.222)" fill="#fff" stroke="#ff7e5d" stroke-width="1"><rect width="162" height="67" rx="33.5" stroke="none"/><rect x="0.5" y="0.5" width="161" height="66" rx="33" fill="none"/></g><text transform="translate(500.348 3600.074)" fill="#12263f" font-size="16" font-family="Roboto-Black, Roboto" font-weight="800"><tspan x="-56.844" y="0">Automatización</tspan><tspan x="-43.934" y="24">de procesos</tspan></text></g><g transform="translate(-7261.348 -11944)"><g transform="translate(393.348 3845.222)" fill="#fff" stroke="#ff7e5d" stroke-width="1"><rect width="188" height="67" rx="33.5" stroke="none"/><rect x="0.5" y="0.5" width="187" height="66" rx="33" fill="none"/></g><text transform="translate(487.348 3872.869)" fill="#12263f" font-size="16" font-family="Roboto-Black, Roboto" font-weight="800"><tspan x="-41.148" y="0">Integración</tspan><tspan x="-64.59" y="24">entre plataformas</tspan></text></g><g transform="translate(-7270.503 -11944.113)"><g transform="translate(1017.348 3566.836)" fill="#fff" stroke="#ff7e5d" stroke-width="1"><rect width="147" height="67" rx="33.5" stroke="none"/><rect x="0.5" y="0.5" width="146" height="66" rx="33" fill="none"/></g><text transform="translate(1090.348 3593.836)" fill="#12263f" font-size="16" font-family="Roboto-Black, Roboto" font-weight="800"><tspan x="-41.195" y="0">Generación</tspan><tspan x="-41.656" y="24">de reportes</tspan></text></g><g transform="translate(-7261.348 -11944)"><g transform="translate(1017.348 3845.869)" fill="#fff" stroke="#ff7e5d" stroke-width="1"><rect width="147" height="67" rx="33.5" stroke="none"/><rect x="0.5" y="0.5" width="146" height="66" rx="33" fill="none"/></g><text transform="translate(1090.348 3872.869)" fill="#12263f" font-size="16" font-family="Roboto-Black, Roboto" font-weight="800"><tspan x="-43.844" y="0">Información</tspan><tspan x="-51.871" y="24">en tiempo real</tspan></text></g><g transform="translate(-7261.348 -11944)"><g transform="translate(695.348 3900.869)" fill="#fff" stroke="#ff7e5d" stroke-width="1"><rect width="218" height="67" rx="33.5" stroke="none"/><rect x="0.5" y="0.5" width="217" height="66" rx="33" fill="none"/></g><text transform="translate(804.348 3932.369)" fill="#12263f" font-size="16" font-family="Roboto-Black, Roboto" font-weight="800"><tspan x="-69.926" y="0">Flexibilidad para la </tspan><tspan x="-58.258" y="24">implementación</tspan></text></g></g></svg>