<svg xmlns="http://www.w3.org/2000/svg" width="124" height="124" viewBox="0 0 124 124"><g transform="translate(3318 7313.977)"><g transform="translate(7296.326 1414.799)"><circle cx="62" cy="62" r="62" transform="translate(-10614.326 -8728.775)" fill="#fff"/></g><g transform="translate(-3297.58 -7287.216)"><g transform="translate(0 1.275)"><g transform="translate(24.8 45.604)"><path d="M183.8,307.318V328.01c0,2.812-7.161,5.091-15.995,5.091s-15.995-2.279-15.995-5.091V307.318c0-2.812,7.161-5.091,15.995-5.091S183.8,304.506,183.8,307.318Z" transform="translate(-151.813 -302.227)" fill="#ffe177" fill-rule="evenodd"/><path d="M261.722,307.318V328.01c0,2.812-7.161,5.091-15.995,5.091q-.619,0-1.227-.015c8.26-.2,14.768-2.4,14.768-5.076V307.318c0-2.68-6.507-4.877-14.768-5.076q.607-.015,1.227-.015C254.561,302.227,261.722,304.506,261.722,307.318Z" transform="translate(-229.732 -302.227)" fill="#ffd064" fill-rule="evenodd"/><path d="M151.813,344.524c0,2.812,7.161,5.091,15.995,5.091s15.995-2.279,15.995-5.091V334.178c0,2.812-7.161,5.091-15.995,5.091s-15.995-2.279-15.995-5.091Z" transform="translate(-151.813 -329.087)" fill="#ffd064" fill-rule="evenodd"/><path d="M337.188,347.235c1.554-.785,2.454-1.714,2.454-2.711V334.178c0,1-.9,1.926-2.454,2.71Z" transform="translate(-307.652 -329.087)" fill="#ffc338" fill-rule="evenodd"/></g><g transform="translate(0 3.016)"><circle cx="11.794" cy="11.794" r="11.794" transform="translate(0 6.51) rotate(-16.024)" fill="#8ac9fe"/></g><g transform="translate(30.012)"><path d="M185.639,16h14.6a1.078,1.078,0,0,1,.789.327l4.734,4.734a1.078,1.078,0,0,1,.327.789V45.457a1.118,1.118,0,0,1-1.116,1.116H185.639a1.118,1.118,0,0,1-1.116-1.116V17.116A1.118,1.118,0,0,1,185.639,16Z" transform="translate(-184.523 -16)" fill="#eceff1" fill-rule="evenodd"/><path d="M185.639,16h.951V46.573h-.951a1.118,1.118,0,0,1-1.116-1.116V17.116A1.118,1.118,0,0,1,185.639,16Z" transform="translate(-184.523 -16)" fill="#d1d1d6" fill-rule="evenodd"/><path d="M286.7,21.9h4.653a1.12,1.12,0,0,0-.23-.327l-4.734-4.734a1.118,1.118,0,0,0-.327-.23V21.26A.639.639,0,0,0,286.7,21.9Z" transform="translate(-269.887 -16.51)" fill="#d1d1d6" fill-rule="evenodd"/><g transform="translate(26.44 3.93)"><path d="M352.478,40.669h19.168a2.016,2.016,0,0,1,2.01,2.01V72.291a2.016,2.016,0,0,1-2.01,2.01H352.478a2.016,2.016,0,0,1-2.01-2.01V42.679A2.016,2.016,0,0,1,352.478,40.669Z" transform="translate(-350.468 -40.669)" fill="#837683" fill-rule="evenodd"/><path d="M372.218,40.9a2.018,2.018,0,0,1,1.63,1.974V72.484a2.016,2.016,0,0,1-2.01,2.01H352.67a2.017,2.017,0,0,1-1.973-1.63,1.994,1.994,0,0,0,.38.036h19.168a2.016,2.016,0,0,0,2.01-2.01V41.278A1.994,1.994,0,0,0,372.218,40.9Z" transform="translate(-350.661 -40.862)" fill="#685e68" fill-rule="evenodd"/><path d="M392.961,107.89a5.755,5.755,0,0,1,5.736,5.287.433.433,0,0,1-.432.468H387.656a.433.433,0,0,1-.432-.468A5.755,5.755,0,0,1,392.961,107.89Z" transform="translate(-381.367 -97.18)" fill="#60b7ff" fill-rule="evenodd"/><path d="M420.95,107.89a5.755,5.755,0,0,1,5.736,5.287.433.433,0,0,1-.432.468h-.866a.433.433,0,0,0,.432-.468,5.756,5.756,0,0,0-5.3-5.271Q420.731,107.89,420.95,107.89Z" transform="translate(-409.356 -97.18)" fill="#41a8fc" fill-rule="evenodd"/><circle cx="2.91" cy="2.91" r="2.91" transform="translate(8.64 4.529) rotate(-1.203)" fill="#f6dccd"/><path d="M421.776,68.772a2.91,2.91,0,1,1,0,5.819c-.093,0-.185,0-.277-.013a2.91,2.91,0,0,0,0-5.793Q421.635,68.772,421.776,68.772Z" transform="translate(-410.182 -64.294)" fill="#f1cbbc" fill-rule="evenodd"/></g></g></g><path d="M74.16,24.95a4.486,4.486,0,0,1,4.295,3.2H69.866A4.486,4.486,0,0,1,74.16,24.95Zm0-5.819a1.635,1.635,0,1,1-1.636,1.635A1.635,1.635,0,0,1,74.16,19.132ZM68.407,30.7H79.915a1.275,1.275,0,0,0,1.275-1.275,7.034,7.034,0,0,0-3.67-6.172,4.185,4.185,0,1,0-6.719,0,7.034,7.034,0,0,0-3.67,6.172A1.275,1.275,0,0,0,68.407,30.7Zm13.473,5.282A1.275,1.275,0,0,1,80.6,37.26H67.717a1.275,1.275,0,1,1,0-2.549H80.6A1.276,1.276,0,0,1,81.879,35.985Zm0,4.681A1.275,1.275,0,0,1,80.6,41.941H67.717a1.275,1.275,0,1,1,0-2.549H80.6A1.275,1.275,0,0,1,81.879,40.667Zm2.6,4.16V15.215a.744.744,0,0,0-.734-.736H64.576a.744.744,0,0,0-.734.736V44.827a.744.744,0,0,0,.734.734H83.745A.744.744,0,0,0,84.48,44.827Zm-.734-32.9H64.576a3.289,3.289,0,0,0-3.284,3.285V44.827a3.288,3.288,0,0,0,3.284,3.284H83.745a3.287,3.287,0,0,0,3.283-3.284V15.215a3.288,3.288,0,0,0-3.283-3.285ZM27.056,68.566a1.275,1.275,0,0,1-.559,1.055l-4.506,3.058a1.275,1.275,0,0,1-1.432-2.111l1.073-.727H14.95a1.275,1.275,0,0,1-1.275-1.275V45.242a1.275,1.275,0,1,1,2.549,0v22.05h5.408l-1.072-.728a1.275,1.275,0,0,1,1.432-2.11L26.5,67.512A1.275,1.275,0,0,1,27.056,68.566ZM80.144,51.823V68.566a1.274,1.274,0,0,1-1.274,1.275H72.187l1.072.727a1.275,1.275,0,1,1-1.431,2.111l-4.506-3.058a1.274,1.274,0,0,1,0-2.11l4.506-3.057a1.275,1.275,0,1,1,1.431,2.11l-1.072.728h5.408V51.823a1.275,1.275,0,0,1,2.549,0ZM48.185,42.951v4.616l.728-1.072a1.274,1.274,0,1,1,2.109,1.431l-3.057,4.506a1.274,1.274,0,0,1-2.11,0L42.8,47.925a1.275,1.275,0,1,1,2.11-1.431l.727,1.072V42.951a1.275,1.275,0,1,1,2.549,0Zm5.806-12.9a1.275,1.275,0,0,1-1.275,1.275H41.105a1.275,1.275,0,1,1,0-2.549H52.716A1.275,1.275,0,0,1,53.991,30.05Zm0-10.286a1.275,1.275,0,0,1-1.275,1.275H41.105a1.275,1.275,0,1,1,0-2.549H52.716A1.275,1.275,0,0,1,53.991,19.764ZM39.83,14.621a1.275,1.275,0,0,1,1.275-1.275h7.181a1.275,1.275,0,1,1,0,2.549H41.105a1.275,1.275,0,0,1-1.275-1.275ZM53.991,24.907a1.275,1.275,0,0,1-1.275,1.275H41.105a1.275,1.275,0,1,1,0-2.55H52.716A1.275,1.275,0,0,1,53.991,24.907Zm0,10.286a1.276,1.276,0,0,1-1.275,1.275H41.105a1.275,1.275,0,1,1,0-2.55H52.716A1.275,1.275,0,0,1,53.991,35.193ZM37.4,10.549V38.573H56.419V15.937H52.305a1.275,1.275,0,0,1-1.274-1.275V10.549Zm16.179,1.8,1.036,1.037H53.58ZM36.127,41.122H57.693a1.275,1.275,0,0,0,1.275-1.275V14.663a1.275,1.275,0,0,0-.373-.9L53.207,8.372a1.274,1.274,0,0,0-.9-.373H36.127a1.275,1.275,0,0,0-1.275,1.275V39.847a1.275,1.275,0,0,0,1.275,1.275Zm-7.551-8.011c-.367-.186-.751-.358-1.149-.516a14.58,14.58,0,0,0,1.115-4.476h2.137A10.057,10.057,0,0,1,28.576,33.111ZM10.634,28.119h2.137a14.626,14.626,0,0,0,1.115,4.476c-.4.158-.781.33-1.148.516A10.056,10.056,0,0,1,10.634,28.119Zm2.1-7.543c.365.186.747.358,1.142.514a14.5,14.5,0,0,0-1.112,4.479H10.634A10.068,10.068,0,0,1,12.738,20.577Zm9.194,4.993V22.264a19.292,19.292,0,0,0,3.046-.421,11.928,11.928,0,0,1,1.009,3.727Zm0,5.855V28.119h4.05a12.048,12.048,0,0,1-1.012,3.725A19.235,19.235,0,0,0,21.931,31.426Zm4.281,3.435c.131.048.261.1.388.15a9.662,9.662,0,0,1-.911.591C25.872,35.361,26.046,35.112,26.212,34.861Zm-4.281,1.053V33.986c.553.038,1.1.1,1.637.19A11.944,11.944,0,0,1,21.931,35.914ZM15.624,35.6a9.872,9.872,0,0,1-.911-.591c.128-.052.258-.1.389-.15C15.268,35.112,15.442,35.361,15.624,35.6Zm3.759-1.616v1.928a11.936,11.936,0,0,1-1.637-1.738C18.281,34.088,18.829,34.024,19.382,33.986Zm0-5.866v3.306a19.265,19.265,0,0,0-3.039.419,12.052,12.052,0,0,1-1.012-3.725Zm0-5.855V25.57H15.327a11.945,11.945,0,0,1,1.009-3.727A19.335,19.335,0,0,0,19.382,22.264ZM15.1,18.827q-.195-.072-.385-.148a10,10,0,0,1,.9-.586c-.18.239-.353.484-.517.734Zm4.285-1.055V19.7c-.554-.038-1.1-.1-1.642-.191a12.066,12.066,0,0,1,1.642-1.74Zm6.317.321a10.011,10.011,0,0,1,.9.586q-.189.076-.384.148C26.052,18.577,25.879,18.332,25.7,18.093Zm-3.768-.321a12.086,12.086,0,0,1,1.642,1.74c-.538.089-1.087.153-1.642.191Zm8.748,7.8H28.545a14.481,14.481,0,0,0-1.111-4.479c.4-.156.777-.328,1.142-.514a10.069,10.069,0,0,1,2.1,4.993ZM20.657,14.189A12.656,12.656,0,1,0,33.312,26.845,12.67,12.67,0,0,0,20.657,14.189ZM49.786,80.578a1.274,1.274,0,0,1-1.274,1.275h-3.2a1.275,1.275,0,1,1,0-2.549h3.2A1.275,1.275,0,0,1,49.786,80.578Zm0-10.345a1.274,1.274,0,0,1-1.274,1.275h-3.2a1.275,1.275,0,1,1,0-2.549h3.2A1.275,1.275,0,0,1,49.786,70.233Zm8.047-7.879A37.565,37.565,0,0,1,46.91,63.785a37.559,37.559,0,0,1-10.924-1.431c-2.785-.887-3.8-1.912-3.8-2.385s1.012-1.5,3.8-2.385A37.565,37.565,0,0,1,46.91,56.153a37.558,37.558,0,0,1,10.923,1.431c2.787.886,3.8,1.912,3.8,2.385S60.62,61.467,57.833,62.354Zm0,10.345c2.787-.886,3.8-1.912,3.8-2.385V63.487a14.84,14.84,0,0,1-3.024,1.3,40.176,40.176,0,0,1-11.7,1.55,40.181,40.181,0,0,1-11.7-1.55,14.867,14.867,0,0,1-3.024-1.3v6.827c0,.473,1.012,1.5,3.8,2.385a37.519,37.519,0,0,0,10.924,1.432A37.517,37.517,0,0,0,57.833,72.7Zm0,10.347c2.787-.888,3.8-1.912,3.8-2.385V73.832a14.665,14.665,0,0,1-3.024,1.3,40.106,40.106,0,0,1-11.7,1.552,40.111,40.111,0,0,1-11.7-1.552,14.691,14.691,0,0,1-3.024-1.3v6.829c0,.473,1.012,1.5,3.8,2.385a37.571,37.571,0,0,0,10.924,1.431A37.57,37.57,0,0,0,57.833,83.046Zm.773-27.892a40.122,40.122,0,0,0-11.7-1.55,40.126,40.126,0,0,0-11.7,1.55c-4.606,1.466-5.573,3.427-5.573,4.815V80.661c0,1.386.967,3.348,5.573,4.815a40.176,40.176,0,0,0,11.7,1.55,40.175,40.175,0,0,0,11.7-1.55c4.606-1.467,5.573-3.429,5.573-4.815V59.969C64.179,58.581,63.213,56.62,58.606,55.154Z" transform="translate(-6.115 -7.999)" fill-rule="evenodd"/></g></g></svg>