<svg xmlns="http://www.w3.org/2000/svg" width="134.021" height="133.129" viewBox="0 0 134.021 133.129"><g transform="translate(1.87 1.868)"><g transform="translate(39.09)"><ellipse cx="32.086" cy="32.086" rx="32.086" ry="32.086" transform="translate(0 0.001)" fill="#d3effb"/><path d="M194.328,72.536a32.087,32.087,0,1,1,0-63.242,32.092,32.092,0,0,0,0,63.242Z" transform="translate(-156.636 -8.827)" fill="#9dc6fb"/><path d="M225.189,123.816H210.281a4.087,4.087,0,0,1,0-8.175h14.907a4.087,4.087,0,1,1,0,8.175Z" transform="translate(-193.103 -87.641)" fill="#365e7d"/><path d="M267.149,94.437a4.087,4.087,0,0,1-4.087-4.087V79.912a4.087,4.087,0,1,1,8.175,0V90.35A4.087,4.087,0,0,1,267.149,94.437Z" transform="translate(-235.064 -58.262)" fill="#2b4d66"/></g><g transform="translate(0 51.284)"><path d="M231.464,278.462l33.679-19.534a9.119,9.119,0,0,1,11.5,13.908L239.21,288.9Z" transform="translate(-172.659 -243.676)" fill="#eaac9d"/><path d="M284.685,281.615l33.679-19.534a9.119,9.119,0,0,1,11.5,13.908l-37.429,16.066Z" transform="translate(-211.929 -246.003)" fill="#ffcbbe"/><path d="M189.853,231.892A9.1,9.1,0,0,1,187.5,238l-6.226,6.894L168.5,259.047a13.267,13.267,0,0,1-8.168,4.27l-57.688,7.348L87.909,245.041c-.113-.184-.22-.372-.325-.561-.018-.031-.034-.06-.05-.089l-.739-1.29c-.013-.018-.026-.039-.037-.058l-3.18-5.526-5.376-9.35L91.77,217.75a66.284,66.284,0,0,1,21.039-10.834c.322-.1.642-.2.965-.286a66.912,66.912,0,0,1,7.017-1.62l2.351-.409a9.112,9.112,0,0,1,10.488,7.156,8.954,8.954,0,0,1,.186,1.822,9.109,9.109,0,0,1-3.806,7.405L115.04,231.711l40.133,5.015,20.835-12.632a9.121,9.121,0,0,1,13.846,7.8Z" transform="translate(-59.572 -204.465)" fill="#ffddce"/><g transform="translate(18.63 0.545)"><path d="M120.791,206.544c-17.647,5.159-31.734,24.161-37.213,32.507L78.2,229.7,91.77,219.284a66.284,66.284,0,0,1,21.039-10.834c.322-.1.642-.2.965-.286a66.911,66.911,0,0,1,7.017-1.62Z" transform="translate(-78.202 -206.544)" fill="#ffcbbe"/><path d="M208.6,358.705l-12.776,14.151a13.26,13.26,0,0,1-8.168,4.269l-57.687,7.348-14.738-25.623C132.664,388.344,201.613,366.442,208.6,358.705Z" transform="translate(-105.523 -318.818)" fill="#ffcbbe"/><path d="M110.978,351.857c.248.42.494.848.739,1.289Z" transform="translate(-102.386 -313.765)" fill="#ffcbbe"/></g><path d="M50.206,337.386l-18.63,11.909L19.95,329.087,7.132,306.8l18.63-11.909,14,24.329Z" transform="translate(-7.132 -271.187)" fill="#9dc6fb"/><path d="M86.288,405.867l-18.63,11.909L56.032,397.568c13.335,1.046,19.807-9.867,19.807-9.867Z" transform="translate(-43.214 -339.668)" fill="#698ed5"/><ellipse cx="4.01" cy="4.01" rx="4.01" ry="4.01" transform="translate(24.524 59.628)" fill="#f9f6f9"/></g><g transform="translate(16.738 1.266)"><path d="M103.808,22.168l-.264.457a3.542,3.542,0,0,1-4.625,1.411l-5.145-2.518a3.542,3.542,0,0,1-1.511-4.953l.656-1.136a3.542,3.542,0,0,1,5.045-1.168l4.753,3.2A3.542,3.542,0,0,1,103.808,22.168Z" transform="translate(-86.335 -13.657)" fill="#f6e266"/><path d="M417.412,170.927l.264-.457a3.542,3.542,0,0,1,4.625-1.411l5.145,2.518a3.542,3.542,0,0,1,1.511,4.953l-.656,1.136a3.542,3.542,0,0,1-5.045,1.168l-4.753-3.2A3.543,3.543,0,0,1,417.412,170.927Z" transform="translate(-326.251 -128.057)" fill="#f6e266"/><path d="M83.784,99.58v.528a3.543,3.543,0,0,1-3.3,3.534l-5.715.392a3.542,3.542,0,0,1-3.785-3.534V99.188a3.542,3.542,0,0,1,3.785-3.534l5.715.392A3.543,3.543,0,0,1,83.784,99.58Z" transform="translate(-70.984 -74.154)" fill="#f6e266"/><path d="M436.58,100.109v-.528a3.543,3.543,0,0,1,3.3-3.534l5.715-.392a3.542,3.542,0,0,1,3.785,3.534V100.5a3.542,3.542,0,0,1-3.785,3.534l-5.715-.392A3.543,3.543,0,0,1,436.58,100.109Z" transform="translate(-340.744 -74.154)" fill="#f6e266"/><path d="M103.544,170.469l.264.457a3.542,3.542,0,0,1-1.091,4.711l-4.753,3.2a3.543,3.543,0,0,1-5.045-1.168l-.656-1.136a3.542,3.542,0,0,1,1.511-4.953l5.145-2.518a3.542,3.542,0,0,1,4.625,1.41Z" transform="translate(-86.334 -128.056)" fill="#f6e266"/><path d="M417.677,22.626l-.264-.457a3.542,3.542,0,0,1,1.091-4.711l4.753-3.2a3.543,3.543,0,0,1,5.045,1.168l.656,1.136a3.542,3.542,0,0,1-1.511,4.953L422.3,24.036a3.542,3.542,0,0,1-4.625-1.41Z" transform="translate(-326.251 -13.658)" fill="#f6e266"/></g></g><g transform="translate(0 0)"><path d="M225.75,85.062V74.64a6.045,6.045,0,1,0-12.089,0v4.377h-8.842a6.045,6.045,0,0,0-5.1,9.3,1.963,1.963,0,1,0,3.306-2.118,2.1,2.1,0,0,1-.329-1.132,2.121,2.121,0,0,1,2.118-2.12h8.842v2.119a6.01,6.01,0,0,0,.384,2.119h-5.3a1.963,1.963,0,1,0,0,3.926h10.974A6.051,6.051,0,0,0,225.75,85.062ZM217.586,74.64a2.118,2.118,0,1,1,4.237,0V85.062a2.118,2.118,0,1,1-4.237,0Z" transform="translate(-146.668 -51.06)"/><path d="M131.655,75.42a11.081,11.081,0,0,0-10.445-4.088,11.074,11.074,0,0,0-13.966-2.092l-.778.451a11.112,11.112,0,0,0-13.152-1.278L70.359,81.725l-7.787-.973,10.87-7.786a11.031,11.031,0,0,0,3.122-3.444A34,34,0,1,0,47.421,58.067a68.276,68.276,0,0,0-14.5,8.512L19.43,76.938.905,88.779a1.963,1.963,0,0,0-.644,2.633L24.67,133.845a1.963,1.963,0,0,0,2.759.675l18.232-11.654,45.759-5.829a1.963,1.963,0,0,0-.5-3.9l-44.9,5.719-22.9-39.81,12.183-9.358A64.484,64.484,0,0,1,63.43,57.352l2.348-.408a7.1,7.1,0,0,1,8.212,5.6,7.142,7.142,0,0,1-2.834,7.23L56.207,80.481a1.963,1.963,0,0,0,.9,3.544l40.078,5.01a1.961,1.961,0,0,0,1.261-.269l20.8-12.614a7.142,7.142,0,0,1,9,10.894l-18.976,21.015a11.275,11.275,0,0,1-6.943,3.629l-3.625.461a1.963,1.963,0,1,0,.495,3.9l3.626-.461a15.2,15.2,0,0,0,9.363-4.893l18.975-21.014a11.071,11.071,0,0,0,.489-14.258ZM27.047,130.1,4.6,91.078,19.89,81.3,42.339,120.33ZM65.1,53.075l-2.348.408a67.947,67.947,0,0,0-11.428,3.037,30.327,30.327,0,0,1-3.313-4.1l1.766-1.02A1.963,1.963,0,1,0,47.819,48l-1.773,1.024a29.81,29.81,0,0,1-3.022-11.353h4.749a1.963,1.963,0,1,0,0-3.926H43.025A29.847,29.847,0,0,1,46.067,22.4l1.753,1.012a1.963,1.963,0,1,0,1.963-3.4L48.035,19a30.323,30.323,0,0,1,8.3-8.3l1.009,1.748a1.963,1.963,0,1,0,3.4-1.963L59.733,8.735a29.852,29.852,0,0,1,11.34-3.042v4.747a1.963,1.963,0,0,0,3.926,0V5.693A29.855,29.855,0,0,1,86.34,8.735l-1.012,1.752a1.963,1.963,0,1,0,3.4,1.963L89.738,10.7a30.325,30.325,0,0,1,8.3,8.3L96.29,20.011a1.963,1.963,0,1,0,1.963,3.4l1.753-1.012a29.849,29.849,0,0,1,3.042,11.341H98.3a1.963,1.963,0,1,0,0,3.926h4.75a29.946,29.946,0,0,1-3.034,11.346l-1.762-1.017a1.963,1.963,0,0,0-1.963,3.4l1.76,1.016a30.285,30.285,0,0,1-8.3,8.305l-1.016-1.76a1.963,1.963,0,1,0-3.4,1.963l1.018,1.762a29.874,29.874,0,0,1-8.376,2.693,11.015,11.015,0,0,0,.091-1.4,11.176,11.176,0,0,0-.223-2.215A11.01,11.01,0,0,0,65.1,53.075ZM95.3,71.8l.033-.019a7.17,7.17,0,0,1,7.462.04L82.994,83.3l-6.2-.775Zm1.7,13.255-7.562-.945,19.8-11.483.034-.02a7.143,7.143,0,0,1,7.813.27Z" transform="translate(0.001 -1.701)"/><path d="M99.389,424.192a5.967,5.967,0,1,0,5.967,5.967A5.974,5.974,0,0,0,99.389,424.192Zm0,8.008a2.041,2.041,0,1,1,2.041-2.041A2.043,2.043,0,0,1,99.389,432.2Z" transform="translate(-68.932 -313.442)"/><path d="M87.625,18.1l5.138,2.514a5.455,5.455,0,0,0,2.4.557,5.518,5.518,0,0,0,4.779-2.747l.263-.456a5.517,5.517,0,0,0-1.694-7.314L93.768,7.46a5.5,5.5,0,0,0-7.833,1.814l-.655,1.135A5.5,5.5,0,0,0,87.625,18.1Zm1.055-5.727.655-1.135a1.559,1.559,0,0,1,1.008-.746,1.594,1.594,0,0,1,.36-.041,1.557,1.557,0,0,1,.873.269l4.746,3.192A1.579,1.579,0,0,1,96.807,16h0l-.263.456a1.579,1.579,0,0,1-2.055.627l-5.138-2.514a1.574,1.574,0,0,1-.671-2.2Z" transform="translate(-62.382 -5.26)"/><path d="M411.66,171.867l4.746,3.192a5.5,5.5,0,0,0,7.833-1.814l.655-1.135a5.5,5.5,0,0,0-2.346-7.691l-5.138-2.514a5.517,5.517,0,0,0-7.181,2.19l-.264.457h0a5.516,5.516,0,0,0,1.694,7.314Zm1.706-5.351.264-.457a1.578,1.578,0,0,1,2.055-.627l5.138,2.514a1.574,1.574,0,0,1,.671,2.2l-.655,1.135a1.574,1.574,0,0,1-2.242.519l-4.746-3.192A1.579,1.579,0,0,1,413.366,166.516Z" transform="translate(-301.959 -119.5)"/><path d="M65.508,99.219a5.522,5.522,0,0,0,3.758,1.48q.186,0,.373-.013l5.707-.391a5.516,5.516,0,0,0,5.124-5.488V94.28a5.517,5.517,0,0,0-5.124-5.488L69.639,88.4a5.5,5.5,0,0,0-5.877,5.488V95.2a5.519,5.519,0,0,0,1.746,4.02Zm2.18-5.331a1.574,1.574,0,0,1,1.57-1.574c.037,0,.074,0,.111,0l5.707.391a1.578,1.578,0,0,1,1.466,1.57v.527a1.579,1.579,0,0,1-1.466,1.57l-5.707.391a1.574,1.574,0,0,1-1.681-1.57Z" transform="translate(-47.047 -65.665)"/><path d="M439.661,88.4l-5.707.391a5.517,5.517,0,0,0-5.124,5.488v.527a5.516,5.516,0,0,0,5.124,5.488l5.707.391q.187.013.373.013a5.5,5.5,0,0,0,5.5-5.5v-1.31a5.5,5.5,0,0,0-5.877-5.488Zm1.451,4.337a1.558,1.558,0,0,1,.5,1.151V95.2a1.574,1.574,0,0,1-1.681,1.57l-5.707-.391a1.579,1.579,0,0,1-1.466-1.57v-.527a1.578,1.578,0,0,1,1.466-1.57l5.707-.391c.037,0,.074,0,.111,0a1.554,1.554,0,0,1,1.071.423Z" transform="translate(-316.419 -65.665)"/><path d="M99.943,164.1h0a5.517,5.517,0,0,0-7.181-2.19l-5.138,2.514a5.5,5.5,0,0,0-2.346,7.691l.655,1.135a5.5,5.5,0,0,0,7.833,1.814l4.746-3.192a5.517,5.517,0,0,0,1.694-7.314Zm-3.622,4.513L91.575,171.8a1.574,1.574,0,0,1-2.242-.519l-.655-1.135a1.574,1.574,0,0,1,.671-2.2l5.138-2.514a1.561,1.561,0,0,1,.688-.159,1.579,1.579,0,0,1,1.367.786l.264.457a1.579,1.579,0,0,1-.485,2.093Z" transform="translate(-62.381 -119.5)"/><path d="M410.231,18.423a5.516,5.516,0,0,0,4.778,2.747,5.459,5.459,0,0,0,2.4-.557L422.55,18.1a5.5,5.5,0,0,0,2.346-7.691l-.655-1.134a5.5,5.5,0,0,0-7.833-1.814l-4.746,3.192a5.517,5.517,0,0,0-1.693,7.315Zm3.621-4.513,4.746-3.192a1.557,1.557,0,0,1,.873-.269,1.594,1.594,0,0,1,.36.041,1.559,1.559,0,0,1,1.008.747l.655,1.135a1.574,1.574,0,0,1-.671,2.2l-5.138,2.514a1.578,1.578,0,0,1-2.055-.627h0L413.367,16a1.579,1.579,0,0,1,.485-2.093Z" transform="translate(-301.959 -5.26)"/></g></svg>